<svg xmlns="http://www.w3.org/2000/svg" xmlns:xlink="http://www.w3.org/1999/xlink" id="图层_1" width="16" height="16" x="0" y="0" enable-background="new 0 0 16 16" version="1.1" viewBox="0 0 16 16" xml:space="preserve"><g><rect width="1" height="1" x="2" y="10" fill="#2277da"/><rect width="1" height="1" x="1" y="9" fill="#2277da"/><rect width="1" height="1" x="2" y="9" fill="#2277da"/><rect width="1" height="1" x="4" y="10" fill="#2277da"/><rect width="1" height="1" x="4" y="9" fill="#2277da"/><rect width="1" height="1" x="5" y="9" fill="#2277da"/><rect width="1" height="1" x="11" y="5" fill="#2277da"/><rect width="1" height="1" x="10" y="6" fill="#2277da"/><rect width="1" height="1" x="11" y="6" fill="#2277da"/><rect width="1" height="1" x="13" y="6" fill="#2277da"/><rect width="1" height="1" x="13" y="5" fill="#2277da"/><rect width="1" height="1" x="14" y="6" fill="#2277da"/><polygon fill="#2277da" points="12 13 6 13 6 14 13 14 13 4 12 4"/><polygon fill="#2277da" points="3 2 3 12 4 12 4 3 10 3 10 2"/></g></svg>