<svg xmlns="http://www.w3.org/2000/svg" xmlns:xlink="http://www.w3.org/1999/xlink" id="图层_1" width="16" height="16" x="0" y="0" enable-background="new 0 0 16 16" version="1.1" viewBox="0 0 16 16" xml:space="preserve"><metadata><?xpacket begin="﻿" id="W5M0MpCehiHzreSzNTczkc9d"?><?xpacket end="w"?></metadata><g><rect width="2" height="1" x="7" y="11.5" fill="#888"/><path fill="#888" d="M8,1C4.134,1,1,4.134,1,8c0,3.866,3.134,7,7,7c3.866,0,7-3.134,7-7C15,4.134,11.866,1,8,1z M8,13.5 c-3.033,0-5.5-2.467-5.5-5.5S4.967,2.5,8,2.5s5.5,2.467,5.5,5.5S11.033,13.5,8,13.5z"/></g><path fill="#888" d="M8,5.562c0.551,0,1,0.449,1,1S8.578,7.484,8,7.641v0.014C7.419,7.861,7,8.41,7,9.062v1.375h2V9.379	c1.163-0.413,2-1.512,2-2.816c0-1.657-1.343-3-3-3s-3,1.343-3,3h2C7,6.011,7.449,5.562,8,5.562z"/></svg>