<svg xmlns="http://www.w3.org/2000/svg" xmlns:xlink="http://www.w3.org/1999/xlink" id="图层_1" width="16" height="16" x="0" style="enable-background:new 0 0 16 16" y="0" version="1.1" viewBox="0 0 16 16" xml:space="preserve"><g><g><path style="fill:#0abf5b" d="M12,8c-2.209,0-4,1.791-4,4c0,2.209,1.791,4,4,4s4-1.791,4-4C16,9.791,14.209,8,12,8z M11.392,14.076l-1.778-1.778l0.707-0.707l1.07,1.07l2.422-2.422l0.707,0.707L11.392,14.076z"/></g><g><path style="fill:#888" d="M7.422,14H2V2h8v5.422C10.613,7.154,11.288,7,12,7V0H0v16h9.027 C8.334,15.484,7.773,14.802,7.422,14z"/><rect style="fill:#888" width="2" height="2" x="5" y="11"/></g></g></svg>