<svg xmlns="http://www.w3.org/2000/svg" xmlns:xlink="http://www.w3.org/1999/xlink" id="图层_1" width="16" height="16" x="0" style="enable-background:new 0 0 16 16" y="0" version="1.1" viewBox="0 0 16 16" xml:space="preserve"><g><polygon style="fill:#ff9d00" points="9.002 4 7.002 4 7.002 8.996 7 8.998 7.002 8.999 7.002 9 7.002 9 9.338 11.335 10.752 9.921 9.002 8.171"/><path style="fill:#ff9d00" d="M8,1C4.134,1,1,4.134,1,8s3.134,7,7,7s7-3.134,7-7S11.866,1,8,1z M8,13c-2.757,0-5-2.243-5-5 s2.243-5,5-5s5,2.243,5,5S10.757,13,8,13z"/></g></svg>