<svg xmlns="http://www.w3.org/2000/svg" xmlns:xlink="http://www.w3.org/1999/xlink" width="248" height="244" viewBox="0 0 248 244"><svg id="TDSQL-y" width="18" height="18" x="86" y="54" viewBox="-42 42 18 18"><style>.aast0{fill-rule:evenodd;clip-rule:evenodd;fill:#ffb800}</style><path d="M-30.5 59c-3 0-5.5-2.5-5.5-5.5s2.5-5.5 5.5-5.5 5.5 2.5 5.5 5.5-2.5 5.5-5.5 5.5zm0-10c-2.5 0-4.5 2-4.5 4.5s2 4.5 4.5 4.5 4.5-2 4.5-4.5-2-4.5-4.5-4.5zm.5 8h-1v-1h-1v-1h2v-1h1v2h-1v1zm-1-4h1v1h-1v-1zm-1-2h1v-1h1v1h1v1h-2v1h-1v-2zm-2-7c-3.3 0-6 1.1-6 2.5 0 1 1.5 1.9 3.7 2.3l-.6.9c-1.3-.3-2.3-.8-3.1-1.4v2.2c0 .8.8 1.4 2.1 1.9 0 .3-.1.6-.1 1-.8-.3-1.5-.6-2-1.1v2.2c0 .9 1.1 1.6 2.7 2.1l.6 1.2c-2.5-.5-4.3-1.8-4.3-3.2v-8c0-1.9 3.1-3.5 7-3.5s7 1.6 7 3.5v.4c-.3-.2-.7-.3-1-.4-.1-1.5-2.7-2.6-6-2.6z" class="aast0"/></svg><svg id="TDSQL-y-#FFFFFF" width="18" height="18" x="176" y="54" viewBox="-42 42 18 18"><style>.abst0{fill-rule:evenodd;clip-rule:evenodd;fill:#fff}</style><path d="M-30.5 59c-3 0-5.5-2.5-5.5-5.5s2.5-5.5 5.5-5.5 5.5 2.5 5.5 5.5-2.5 5.5-5.5 5.5zm0-10c-2.5 0-4.5 2-4.5 4.5s2 4.5 4.5 4.5 4.5-2 4.5-4.5-2-4.5-4.5-4.5zm.5 8h-1v-1h-1v-1h2v-1h1v2h-1v1zm-1-4h1v1h-1v-1zm-1-2h1v-1h1v1h1v1h-2v1h-1v-2zm-2-7c-3.3 0-6 1.1-6 2.5 0 1 1.5 1.9 3.7 2.3l-.6.9c-1.3-.3-2.3-.8-3.1-1.4v2.2c0 .8.8 1.4 2.1 1.9 0 .3-.1.6-.1 1-.8-.3-1.5-.6-2-1.1v2.2c0 .9 1.1 1.6 2.7 2.1l.6 1.2c-2.5-.5-4.3-1.8-4.3-3.2v-8c0-1.9 3.1-3.5 7-3.5s7 1.6 7 3.5v.4c-.3-.2-.7-.3-1-.4-.1-1.5-2.7-2.6-6-2.6z" class="abst0"/></svg><svg id="accounts-y" width="18" height="18" y="82" viewBox="-42 42 18 18"><style>.acst0{fill:#ffb800}</style><path d="M-25 50.1c-.5-4.4-4.5-7.6-8.9-7.1s-7.6 4.5-7.1 8.9 4.5 7.6 8.9 7.1c4.5-.5 7.6-4.5 7.1-8.9zm-7.2 8c-3.9.4-7.4-2.3-7.8-6.2-.4-3.9 2.3-7.4 6.2-7.8 3.9-.4 7.4 2.3 7.8 6.2.5 3.8-2.3 7.4-6.2 7.8zm3.2-7c0-.2.1-.4.1-.6 0-1.9-1.6-3.5-3.5-3.5-1.8 0-3.2 1.3-3.5 3h-.1c-1.1 0-2 .9-2 2s.9 2 2 2h6.5c.8 0 1.5-.7 1.5-1.5.1-.6-.4-1.2-1-1.4zm-.4 2H-36c-.6 0-1-.5-1-1s.4-1 1-1h1l.1-.9c.2-1.2 1.2-2.2 2.5-2.2 1.4 0 2.5 1.1 2.5 2.5v.4l-.1.9.8.3c.2.1.4.2.4.5-.1.2-.4.5-.6.5z" class="acst0"/></svg><svg id="accounts-y-#FFFFFF" width="18" height="18" x="176" y="108" viewBox="-42 42 18 18"><style>.adst0{fill:#fff}</style><path d="M-25 50.1c-.5-4.4-4.5-7.6-8.9-7.1s-7.6 4.5-7.1 8.9 4.5 7.6 8.9 7.1c4.5-.5 7.6-4.5 7.1-8.9zm-7.2 8c-3.9.4-7.4-2.3-7.8-6.2-.4-3.9 2.3-7.4 6.2-7.8 3.9-.4 7.4 2.3 7.8 6.2.5 3.8-2.3 7.4-6.2 7.8zm3.2-7c0-.2.1-.4.1-.6 0-1.9-1.6-3.5-3.5-3.5-1.8 0-3.2 1.3-3.5 3h-.1c-1.1 0-2 .9-2 2s.9 2 2 2h6.5c.8 0 1.5-.7 1.5-1.5.1-.6-.4-1.2-1-1.4zm-.4 2H-36c-.6 0-1-.5-1-1s.4-1 1-1h1l.1-.9c.2-1.2 1.2-2.2 2.5-2.2 1.4 0 2.5 1.1 2.5 2.5v.4l-.1.9.8.3c.2.1.4.2.4.5-.1.2-.4.5-.6.5z" class="adst0"/></svg><svg id="analysis-y" width="18" height="18" x="212" viewBox="-42 42 18 18"><style>.aest0{fill:#ffb800}</style><path d="M-25 54V44h-16v13h16v-1h-15v-8h14v6h1zm-15-7v-2h14v2h-14zm11 3h-1v-1h-1v1h-6v1h8v-1zm-6 4v-1h6v-1h-8v1h1v1h1z" class="aest0"/></svg><svg id="analysis-y-#FFFFFF" width="18" height="18" y="46" viewBox="-42 42 18 18"><style>.afst0{fill:#fff}</style><path d="M-25 54V44h-16v13h16v-1h-15v-8h14v6h1zm-15-7v-2h14v2h-14zm11 3h-1v-1h-1v1h-6v1h8v-1zm-6 4v-1h6v-1h-8v1h1v1h1z" class="afst0"/></svg><svg id="app-y" width="18" height="18" x="18" y="46" viewBox="-42 42 18 18"><style>.agst0{fill:#ffb800}</style><path d="M-26 43h-15v7s0 8 7.5 9c7.5-1 7.5-9 7.5-9v-4h-1v4c0 .3-.1 7.1-6.5 8-6.4-.9-6.5-7.7-6.5-8v-6h14v-1zm-10 9v-4h-3v4h1v-1h1v1h1zm-2-2v-1h1v1h-1zm4 2v-1h2v-3h-3v4h1zm0-3h1v1h-1v-1zm4 3v-1h2v-3h-3v4h1zm0-3h1v1h-1v-1z" class="agst0"/></svg><svg id="app-y-#FFFFFF" width="18" height="18" x="36" y="46" viewBox="-42 42 18 18"><style>.ahst0{fill:#fff}</style><path d="M-26 43h-15v7s0 8 7.5 9c7.5-1 7.5-9 7.5-9v-4h-1v4c0 .3-.1 7.1-6.5 8-6.4-.9-6.5-7.7-6.5-8v-6h14v-1zm-10 9v-4h-3v4h1v-1h1v1h1zm-2-2v-1h1v1h-1zm4 2v-1h2v-3h-3v4h1zm0-3h1v1h-1v-1zm4 3v-1h2v-3h-3v4h1zm0-3h1v1h-1v-1z" class="ahst0"/></svg><svg id="btn-dismiss" width="18" height="18" x="54" y="46" viewBox="-1 -1 18 18"><path fill="#888" d="M13.95 3.414L12.536 2 8 6.536 3.464 2 2.05 3.414 6.586 7.95 2.05 12.485l1.414 1.414L8 9.364l4.536 4.535 1.414-1.414L9.414 7.95z"/></svg><svg id="builder-y" width="18" height="18" y="64" viewBox="-42 42 18 18"><style>.ajst0{fill:#ffb800}</style><path d="M-36.8 46l-4.2 5 4.2 5h1.3l-4.2-5 4.2-5h-1.3zm7.6 0h-1.3l4.2 5-4.2 5h1.3l4.2-5-4.2-5zm-6 11h1l3.4-12h-1l-3.4 12z" class="ajst0"/></svg><svg id="builder-y-#FFFFFF" width="18" height="18" x="18" y="64" viewBox="-42 42 18 18"><style>.akst0{fill:#fff}</style><path d="M-36.8 46l-4.2 5 4.2 5h1.3l-4.2-5 4.2-5h-1.3zm7.6 0h-1.3l4.2 5-4.2 5h1.3l4.2-5-4.2-5zm-6 11h1l3.4-12h-1l-3.4 12z" class="akst0"/></svg><svg id="cdn-y" width="18" height="18" x="36" y="64" viewBox="-42 42 18 18"><style>.alst0{fill-rule:evenodd;clip-rule:evenodd;fill:#ffb800}</style><path d="M-40 54.8l7.5 3.9.5.3v-7.8l-8-4.2v7.8zm1-6.2l6 3.2v5.6l-6-3.2v-5.6zm5-5.6v1.1l1 .5h.1l4.9 2.6 1 .5v6.7l1 .5v-7.8l-8-4.1zm-3 3.1l1 .5h.1l4.9 2.6 1 .5v6.7l1 .5v-7.8l-8-4.2v1.2z" class="alst0"/></svg><svg id="cdn-y-#FFFFFF" width="18" height="18" x="54" y="64" viewBox="-42 42 18 18"><style>.amst0{fill-rule:evenodd;clip-rule:evenodd;fill:#fff}</style><path d="M-40 54.8l7.5 3.9.5.3v-7.8l-8-4.2v7.8zm1-6.2l6 3.2v5.6l-6-3.2v-5.6zm5-5.6v1.1l1 .5h.1l4.9 2.6 1 .5v6.7l1 .5v-7.8l-8-4.1zm-3 3.1l1 .5h.1l4.9 2.6 1 .5v6.7l1 .5v-7.8l-8-4.2v1.2z" class="amst0"/></svg><svg id="cfs-y" width="18" height="18" x="86" viewBox="-1 -1 18 18"><style>.anst0{fill-rule:evenodd;clip-rule:evenodd;fill:#ffb800}</style><g id="anXMLID_2_"><g id="anXMLID_64_"><path id="anXMLID_65_" d="M8 9.2l7-3.9V3.9L8 0 1 4v1.2l7 4zm0-8V.6v.6l6.2 3.4L8 8v.6V8L2 4.6l6-3.4zM8 12l7-3.9V7l-7 3.9v.9-1l-7-4V8l7 4zm7-2l-7 3.9v.2-.3l-7-4V11l7 4 7-3.9V10z" class="anst0"/></g></g></svg><svg id="cfs-y-#FFFFFF" width="18" height="18" x="86" y="18" viewBox="-1 -1 18 18"><style>.aost0{fill-rule:evenodd;clip-rule:evenodd;fill:#fff}</style><path d="M8 9.2l7-3.9V3.9L8 0 1 4v1.2l7 4zm0-8V.6v.6l6.2 3.4L8 8v.6V8L2 4.6l6-3.4zM8 12l7-3.9V7l-7 3.9v.9-1l-7-4V8l7 4zm7-2l-7 3.9v.2-.3l-7-4V11l7 4 7-3.9V10z" class="aost0"/></svg><svg id="change-icon" width="18" height="18" x="86" y="36" viewBox="-1 -1 18 18"><style>.apst5{fill:#888}</style><path d="M7 4v4.4l3.3 3.3 1.4-1.4L9 7.6V4z" class="apst5"/><path d="M8 0C3.6 0 0 3.6 0 8v4l5-5H2.1C2.6 4.2 5 2 8 2c3.3 0 6 2.7 6 6s-2.7 6-6 6c-1.7 0-3.2-.7-4.2-1.8l-1.4 1.4C3.8 15.1 5.8 16 8 16c4.4 0 8-3.6 8-8s-3.6-8-8-8z" class="apst5"/></svg><svg id="close" width="22" height="22" y="24" viewBox="-1 -1 22 22"><style>.aqst0,.aqst1{fill-rule:evenodd;clip-rule:evenodd;fill:#c6c6c6}.aqst1{fill:#fff}</style><path id="aqXMLID_2_" d="M10 0c5.5 0 10 4.5 10 10s-4.5 10-10 10S0 15.5 0 10 4.5 0 10 0z" class="aqst0"/><g id="aqXMLID_4_"><g id="aqXMLID_24_"><path id="aqXMLID_25_" d="M14.9 6.5l-1.4-1.4L10 8.6 6.5 5.1 5.1 6.5 8.6 10l-3.5 3.5 1.4 1.4 3.5-3.5 3.5 3.5 1.4-1.4-3.5-3.5z" class="aqst1"/></g></g></svg><svg id="close-active" width="22" height="22" x="22" y="24" viewBox="-1 -1 22 22"><style>.arst0,.arst1{fill-rule:evenodd;clip-rule:evenodd;fill:#2277da}.arst1{fill:#fff}</style><path id="arXMLID_2_" d="M10 0c5.5 0 10 4.5 10 10s-4.5 10-10 10S0 15.5 0 10 4.5 0 10 0z" class="arst0"/><g id="arXMLID_4_"><g id="arXMLID_24_"><path id="arXMLID_25_" d="M14.9 6.5l-1.4-1.4L10 8.6 6.5 5.1 5.1 6.5 8.6 10l-3.5 3.5 1.4 1.4 3.5-3.5 3.5 3.5 1.4-1.4-3.5-3.5z" class="arst1"/></g></g></svg><svg id="cloud-market-y" width="18" height="18" x="18" y="82" viewBox="-170 25 18 18"><style>.asst0{fill:#ffb800}</style><path d="M-164 37h5v1h-5zm10-6l-1-4c0-.6-.4-1-1-1h-11c-.6 0-1 .4-1 1l-1 4v1c0 1.1.9 2 2 2s2-.9 2-2c0 1.1.9 2 2 2 .6 0 1.1-.3 1.5-.7.4.4.9.7 1.5.7 1.1 0 2-.9 2-2v-1h-1v1c0 .6-.4 1-1 1s-1-.4-1-1v-1h-1v1c0 .6-.4 1-1 1s-1-.4-1-1v-1h-1v1h-1c0 .6-.4 1-1 1s-1-.4-1-1v-.9l1-4.1h11l1 4.1v.9c0 .6-.4 1-1 1s-1-.4-1-1h-1c0 1.1.9 2 2 2s2-.9 2-2v-1z" class="asst0"/><path d="M-156 40h-11v-5h-1v6h13v-6h-1z" class="asst0"/></svg><svg id="cloud-market-y-#FFFFFF" width="18" height="18" x="36" y="82" viewBox="-170 25 18 18"><style>.atst0{fill:#fff}</style><path d="M-164 37h5v1h-5zm10-6l-1-4c0-.6-.4-1-1-1h-11c-.6 0-1 .4-1 1l-1 4v1c0 1.1.9 2 2 2s2-.9 2-2c0 1.1.9 2 2 2 .6 0 1.1-.3 1.5-.7.4.4.9.7 1.5.7 1.1 0 2-.9 2-2v-1h-1v1c0 .6-.4 1-1 1s-1-.4-1-1v-1h-1v1c0 .6-.4 1-1 1s-1-.4-1-1v-1h-1v1h-1c0 .6-.4 1-1 1s-1-.4-1-1v-.9l1-4.1h11l1 4.1v.9c0 .6-.4 1-1 1s-1-.4-1-1h-1c0 1.1.9 2 2 2s2-.9 2-2v-1z" class="atst0"/><path d="M-156 40h-11v-5h-1v6h13v-6h-1z" class="atst0"/></svg><svg id="cloud-pay-y" width="18" height="18" x="54" y="82" viewBox="-1 -1 18 18"><style>.aust0{fill-rule:evenodd;clip-rule:evenodd;fill:#ffb800}</style><path d="M15 11V1H0v13h15v-1H1V2h13v9h1zm-5-6V4H8V3H7v1c-1.1 0-2 .9-2 2s.9 2 2 2v2H5v1h2v1h1v-1c1.1 0 2-.9 2-2s-.9-2-2-2V5h2zM7 7c-.5 0-1-.4-1-1s.4-1 1-1v2zm2 2c0 .6-.4 1-1 1V8c.6 0 1 .4 1 1z" class="aust0"/></svg><svg id="cloud-pay-y-#FFFFFF" width="18" height="18" x="72" y="82" viewBox="-1 -1 18 18"><style>.avst0{fill-rule:evenodd;clip-rule:evenodd;fill:#fff}</style><path d="M15 11V1H0v13h15v-1H1V2h13v9h1zm-5-6V4H8V3H7v1c-1.1 0-2 .9-2 2s.9 2 2 2v2H5v1h2v1h1v-1c1.1 0 2-.9 2-2s-.9-2-2-2V5h2zM7 7c-.5 0-1-.4-1-1s.4-1 1-1v2zm2 2c0 .6-.4 1-1 1V8c.6 0 1 .4 1 1z" class="avst0"/></svg><svg id="cloudsearch-y" width="18" height="18" x="104" viewBox="-42 42 18 18"><style>.awst0{fill:#ffb800}</style><path d="M-35.4 49c1.4 0 1.4 1.9 1.4 2h1c0-1-.5-3-2.4-3-1 0-2.6.4-2.6 3 0 1.3 1.4 2 2.1 2h3.9v-1h-4c-.2 0-1.1-.3-1.1-1 .1-1.8.9-2 1.7-2zm7.5 6.6c1.5-1.8 3.2-5.7.6-9.2-2.3-3.3-5.3-3.5-7.5-3.3-2 .2-3.8 1.4-5.1 3.3-1.3 1.9-1.4 4.7-.6 6.2 1.9 3.9 5.8 3.8 5.9 3.8 2.6 0 5.5-1.4 5.6-5.3 0-1.8-.4-3.1-1.3-4-.7-.7-1.6-1.1-2.7-1.1-2 0-2.6 1-2.7 1.1l.9.5s.4-.6 1.8-.6c.6 0 1.4.1 2 .8.7.7 1 1.8 1 3.3-.1 4-3.5 4.3-4.6 4.3 0 0-3.4.1-5-3.2-.6-1.2-.6-3.6.5-5.2s2.7-2.7 4.4-2.8c2.1-.2 4.6 0 6.6 2.9 2.3 3.3.4 6.9-.9 8.3l-.3.3 2.7 2.8.7-.7-2-2.2z" class="awst0"/></svg><svg id="cloudsearch-y-#FFFFFF" width="18" height="18" x="104" y="18" viewBox="-42 42 18 18"><style>.axst0{fill:#fff}</style><path d="M-35.4 49c1.4 0 1.4 1.9 1.4 2h1c0-1-.5-3-2.4-3-1 0-2.6.4-2.6 3 0 1.3 1.4 2 2.1 2h3.9v-1h-4c-.2 0-1.1-.3-1.1-1 .1-1.8.9-2 1.7-2zm7.5 6.6c1.5-1.8 3.2-5.7.6-9.2-2.3-3.3-5.3-3.5-7.5-3.3-2 .2-3.8 1.4-5.1 3.3-1.3 1.9-1.4 4.7-.6 6.2 1.9 3.9 5.8 3.8 5.9 3.8 2.6 0 5.5-1.4 5.6-5.3 0-1.8-.4-3.1-1.3-4-.7-.7-1.6-1.1-2.7-1.1-2 0-2.6 1-2.7 1.1l.9.5s.4-.6 1.8-.6c.6 0 1.4.1 2 .8.7.7 1 1.8 1 3.3-.1 4-3.5 4.3-4.6 4.3 0 0-3.4.1-5-3.2-.6-1.2-.6-3.6.5-5.2s2.7-2.7 4.4-2.8c2.1-.2 4.6 0 6.6 2.9 2.3 3.3.4 6.9-.9 8.3l-.3.3 2.7 2.8.7-.7-2-2.2z" class="axst0"/></svg><svg id="cloudservice-y" width="18" height="18" x="104" y="36" viewBox="-42 42 18 18"><style>.ayst0{fill:#ffb800}</style><path d="M-26 49h-1c0-3.3-2.7-6-6-6s-6 2.7-6 6h-1c-.6 0-1 .4-1 1v3c0 .6.4 1 1 1h2v-5c0-2.8 2.2-5 5-5s5 2.2 5 5v4c0 1.7-1.3 3-3 3h-4v2h4v-1c1.9 0 3.4-1.3 3.9-3h1.1c.6 0 1-.4 1-1v-3c0-.6-.4-1-1-1zm-13 4h-1v-3h1v3zm13 0h-1v-3h1v3zm-4-4h-6v1h6v-1zm-1 3v-1h-4v1h4z" class="ayst0"/></svg><svg id="cloudservice-y-#FFFFFF" width="18" height="18" x="104" y="54" viewBox="-42 42 18 18"><style>.azst0{fill:#fff}</style><path d="M-26 49h-1c0-3.3-2.7-6-6-6s-6 2.7-6 6h-1c-.6 0-1 .4-1 1v3c0 .6.4 1 1 1h2v-5c0-2.8 2.2-5 5-5s5 2.2 5 5v4c0 1.7-1.3 3-3 3h-4v2h4v-1c1.9 0 3.4-1.3 3.9-3h1.1c.6 0 1-.4 1-1v-3c0-.6-.4-1-1-1zm-13 4h-1v-3h1v3zm13 0h-1v-3h1v3zm-4-4h-6v1h6v-1zm-1 3v-1h-4v1h4z" class="azst0"/></svg><svg id="cmq-y" width="18" height="18" x="104" y="72" viewBox="-42 42 18 18"><style>.bast0{fill:#ffb800}</style><path d="M-26 49v-5h-14v5h4l-1 1v1h10v3h-1v1h2v-5h-4l1-1v-1h-10v-3h12v4h1zm-8.6 0h4.2l-1 1h-4.2l1-1zm-4.4 5v-4h-1v5h7.8l3 3h1.4l-4-4H-39z" class="bast0"/></svg><svg id="cmq-y-#FFFFFF" width="18" height="18" y="100" viewBox="-42 42 18 18"><style>.bbst0{fill:#fff}</style><path d="M-26 49v-5h-14v5h4l-1 1v1h10v3h-1v1h2v-5h-4l1-1v-1h-10v-3h12v4h1zm-8.6 0h4.2l-1 1h-4.2l1-1zm-4.4 5v-4h-1v5h7.8l3 3h1.4l-4-4H-39z" class="bbst0"/></svg><svg id="communication-y" width="18" height="18" x="18" y="100" viewBox="-42 42 18 18"><style>.bcst0{fill-rule:evenodd;clip-rule:evenodd;fill:#ffb800}</style><path d="M-26 56h1v1h-16V44h16v10h-1v-6h-14v8h14zm0-9v-2h-14v2h14zm-10 3h6v1h-6v-1zm6 3h-6v-1h6v1z" class="bcst0"/></svg><svg id="communication-y-#FFFFFF" width="18" height="18" x="36" y="100" viewBox="-42 42 18 18"><style>.bdst0{fill-rule:evenodd;clip-rule:evenodd;fill:#fff}</style><path d="M-26 56h1v1h-16V44h16v10h-1v-6h-14v8h14zm0-9v-2h-14v2h14zm-10 3h6v1h-6v-1zm6 3h-6v-1h6v1z" class="bdst0"/></svg><svg id="cooperation-server-y" width="18" height="18" x="54" y="100" viewBox="-1 -1 18 18"><style>.best0{fill:#ffb800}</style><path d="M9 1V0H8v7L2 4.4 8 1V0L1 4v7l5 2.9V7.2l2 .9v6h1V1zm-7 9.6V5.4l3 1.3v5.6l-3-1.7zM8 15h1v-1H8v1zm8-11l-5-2.9v6.8L9 7v1l6 2.6L9 14v1l7-4V4zm-1 5.6l-3-1.3V2.7l3 1.7v5.2z" class="best0"/></svg><svg id="cooperation-server-y-#FFFFFF" width="18" height="18" x="72" y="100" viewBox="-1 -1 18 18"><style>.bfst0{fill:#fff}</style><path d="M9 1V0H8v7L2 4.4 8 1V0L1 4v7l5 2.9V7.2l2 .9v6h1V1zm-7 9.6V5.4l3 1.3v5.6l-3-1.7zM8 15h1v-1H8v1zm8-11l-5-2.9v6.8L9 7v1l6 2.6L9 14v1l7-4V4zm-1 5.6l-3-1.3V2.7l3 1.7v5.2z" class="bfst0"/></svg><svg id="csg-y" width="18" height="18" x="90" y="100" viewBox="-1 -1 18 18"><style>.bgst4{fill:#ffb800}</style><g id="bgXMLID_1_"><path id="bgXMLID_8_" d="M14 8.4L9 5.7c0-.5-.5-.9-1-.9-.6 0-1 .4-1 1s.4 1 1 1c.2 0 .4-.1.5-.2L14 9.5v1.9l-6.5 3.5L1 11.4V9.5L0 9v3l7.5 4 7.5-4V8.9l-1-.5z" class="bgst4"/><path id="bgXMLID_10_" d="M1.3 7.7l5.7 3c.1.5.5.9 1 .9.6 0 1-.4 1-1s-.4-1-1-1c-.2 0-.4.1-.6.2L1 6.4V4.6l6.5-3.4L14 4.6v1.9l1 .5V4L7.5 0 0 4v3l1.3.7z" class="bgst4"/></g></svg><svg id="csg-y-#FFFFFF" width="18" height="18" x="122" viewBox="-1 -1 18 18"><style>.bhst4{fill:#fff}</style><path d="M14 8.4L9 5.7c0-.5-.5-.9-1-.9-.6 0-1 .4-1 1s.4 1 1 1c.2 0 .4-.1.5-.2L14 9.5v1.9l-6.5 3.5L1 11.4V9.5L0 9v3l7.5 4 7.5-4V8.9l-1-.5z" class="bhst4"/><path d="M1.3 7.7l5.7 3c.1.5.5.9 1 .9.6 0 1-.4 1-1s-.4-1-1-1c-.2 0-.4.1-.6.2L1 6.4V4.6l6.5-3.4L14 4.6v1.9l1 .5V4L7.5 0 0 4v3l1.3.7z" class="bhst4"/></svg><svg id="css-y" width="18" height="18" x="122" y="18" viewBox="-42 42 18 18"><style>.bist0{fill:#ffb800}</style><path d="M-41 50h7v-6.7l-7 3.7v3zm1-2.4l5-2.7V49h-5v-1.4zm7-4.3V50h7v-3l-7-3.7zm6 5.7h-5v-4.1l5 2.7V49zm-14 6l7 3.7V52h-7v3zm1-2h5v4.1l-5-2.7V53zm7 5.7l7-3.7v-3h-7v6.7zm1-5.7h5v1.4l-5 2.7V53z" class="bist0"/></svg><svg id="css-y-#FFFFFF" width="18" height="18" x="122" y="36" viewBox="-42 42 18 18"><style>.bjst0{fill:#fff}</style><path d="M-41 50h7v-6.7l-7 3.7v3zm1-2.4l5-2.7V49h-5v-1.4zm7-4.3V50h7v-3l-7-3.7zm6 5.7h-5v-4.1l5 2.7V49zm-14 6l7 3.7V52h-7v3zm1-2h5v4.1l-5-2.7V53zm7 5.7l7-3.7v-3h-7v6.7zm1-5.7h5v1.4l-5 2.7V53z" class="bjst0"/></svg><svg id="cz-y" width="18" height="18" x="122" y="54" viewBox="-1 -1 18 18"><g fill="#FFB800"><circle cx="8.469" cy="14.501" r="1.499"/><circle cx="8.469" cy="1.499" r="1.499"/><path d="M11.735 2.726c-.12.317-.284.609-.485.875L14.998 5.6l.002.865v3.928l-3.752 2.001c.202.265.367.556.487.874L16 10.994V5l-4.265-2.274zM2.002 5.599l3.705-1.976a3.459 3.459 0 0 1-.496-.869L1 5v5.994l4.211 2.246c.123-.316.293-.604.497-.868L2 10.394l.002-4.795z"/><path d="M7 6.294V5.16l-3 1.6V9.6l3 1.6v-1.133L5 9l.002-1.641zm6 1.665V6.76l-3-1.6v1.134l1.998 1.065L12 9l-2 1.067V11.2l3-1.6z"/></g></svg><svg id="cz-y-#FFFFFF" width="18" height="18" x="122" y="72" viewBox="-1 -1 18 18"><g fill="#FFF"><circle cx="8.469" cy="14.501" r="1.499"/><circle cx="8.469" cy="1.499" r="1.499"/><path d="M11.735 2.726c-.12.317-.284.609-.485.875L14.998 5.6l.002.865v3.928l-3.752 2.001c.202.265.367.556.487.874L16 10.994V5l-4.265-2.274zM2.002 5.599l3.705-1.976a3.459 3.459 0 0 1-.496-.869L1 5v5.994l4.211 2.246c.123-.316.293-.604.497-.868L2 10.394l.002-4.795z"/><path d="M7 6.294V5.16l-3 1.6V9.6l3 1.6v-1.133L5 9l.002-1.641zm6 1.665V6.76l-3-1.6v1.134l1.998 1.065L12 9l-2 1.067V11.2l3-1.6z"/></g></svg><svg id="database-y" width="18" height="18" x="122" y="90" viewBox="-42 42 18 18"><style>.bmst0{fill:#ffb800}</style><path d="M-25.8 52c-.2-.3-.3-.6-.2-.8.1-.1.2-.2.4-.2s.4-.1.5-.3c.1-.2 0-.4-.1-.6-.1 0-1.2-1-2.6-.8-.4-.3-1.3-1-2.6-1.3-.8-.2-1.4-.2-2 .2-.4.2-.7.6-.8.8-.4 0-.7.1-.8.5-.3.8.6 1.3.9 1.4l.2.1c.1 0 .1.1.2.1.6.3.7.4.6.6-.1.3-.7 1.5.1 2.7.1.2.3.2.5.2s.3-.1.4-.3c.1-.2.3-.5.5-.7.2.4.6 1.1 1.1 1.5.7.7.7 1.2.8 2.1v.6h1v-.6c0-.9-.1-1.8-1.1-2.8-.6-.6-1.1-1.6-1.1-1.7-.1-.2-.3-.3-.5-.3-.4.1-.7.3-1 .5 0-.5.2-.9.2-.9v-.1c.4-1.2-.8-1.7-1.2-1.9-.1 0-.1 0-.2-.1l-.2-.1c.2-.1.3-.2.3-.4 0 0 .1-.4.5-.6.3-.2.7-.2 1.2 0 1.5.3 2.3 1.2 2.3 1.2.1.1.3.2.5.1.4-.1.8 0 1.1.1-.1.1-.2.2-.2.3-.1.3-.4.9.3 1.8.9 1.1.5 4 .2 5.4h1c.5-1.1 1-4.2-.2-5.7zm-5.5 4.7c-.8.2-1.7.3-2.7.3-3.3 0-6-1.1-6-2.5v-2.2c1.2 1 3.3 1.6 5.7 1.7 0-.4 0-.7.1-1-3.2 0-5.8-1.1-5.8-2.5v-2.2c.9.7 2.3 1.3 4 1.6v-1c-2.4-.3-4.1-1.3-4.1-2.4 0-1.4 2.7-2.5 6-2.5s6 1.1 6 2.5c0 .2 0 .4-.1.5.4.2.8.4 1.1.6v-1.1c0-1.9-3.1-3.5-7-3.5s-7 1.6-7 3.5v8c0 1.9 3.1 3.5 7 3.5 1.2 0 2.4-.2 3.4-.4-.1-.4-.3-.7-.6-.9z" class="bmst0"/></svg><svg id="database-y-#FFFFFF" width="18" height="18" y="118" viewBox="-42 42 18 18"><style>.bnst0{fill:#fff}</style><path d="M-25.8 52c-.2-.3-.3-.6-.2-.8.1-.1.2-.2.4-.2s.4-.1.5-.3c.1-.2 0-.4-.1-.6-.1 0-1.2-1-2.6-.8-.4-.3-1.3-1-2.6-1.3-.8-.2-1.4-.2-2 .2-.4.2-.7.6-.8.8-.4 0-.7.1-.8.5-.3.8.6 1.3.9 1.4l.2.1c.1 0 .1.1.2.1.6.3.7.4.6.6-.1.3-.7 1.5.1 2.7.1.2.3.2.5.2s.3-.1.4-.3c.1-.2.3-.5.5-.7.2.4.6 1.1 1.1 1.5.7.7.7 1.2.8 2.1v.6h1v-.6c0-.9-.1-1.8-1.1-2.8-.6-.6-1.1-1.6-1.1-1.7-.1-.2-.3-.3-.5-.3-.4.1-.7.3-1 .5 0-.5.2-.9.2-.9v-.1c.4-1.2-.8-1.7-1.2-1.9-.1 0-.1 0-.2-.1l-.2-.1c.2-.1.3-.2.3-.4 0 0 .1-.4.5-.6.3-.2.7-.2 1.2 0 1.5.3 2.3 1.2 2.3 1.2.1.1.3.2.5.1.4-.1.8 0 1.1.1-.1.1-.2.2-.2.3-.1.3-.4.9.3 1.8.9 1.1.5 4 .2 5.4h1c.5-1.1 1-4.2-.2-5.7zm-5.5 4.7c-.8.2-1.7.3-2.7.3-3.3 0-6-1.1-6-2.5v-2.2c1.2 1 3.3 1.6 5.7 1.7 0-.4 0-.7.1-1-3.2 0-5.8-1.1-5.8-2.5v-2.2c.9.7 2.3 1.3 4 1.6v-1c-2.4-.3-4.1-1.3-4.1-2.4 0-1.4 2.7-2.5 6-2.5s6 1.1 6 2.5c0 .2 0 .4-.1.5.4.2.8.4 1.1.6v-1.1c0-1.9-3.1-3.5-7-3.5s-7 1.6-7 3.5v8c0 1.9 3.1 3.5 7 3.5 1.2 0 2.4-.2 3.4-.4-.1-.4-.3-.7-.6-.9z" class="bnst0"/></svg><svg id="dayudefense-y" width="18" height="18" x="18" y="118" viewBox="-42 42 18 18"><style>.bost0{fill:#ffb800}</style><path d="M-33.5 44h7.5v-1h-15v7s0 8 7.5 9c7.5-1 7.5-9 7.5-9v-4l-1 .5-6.5 4.5-6.5-4.5V44h6.5zm6.5 3.7V50c0 .3-.1 6.7-6 7.9v-6l6-4.2zm-7 4.2v6c-5.9-1.2-6-7.6-6-7.9v-2.3l6 4.2z" class="bost0"/></svg><svg id="dayudefense-y-#FFFFFF" width="18" height="18" x="36" y="118" viewBox="-42 42 18 18"><style>.bpst0{fill:#fff}</style><path d="M-33.5 44h7.5v-1h-15v7s0 8 7.5 9c7.5-1 7.5-9 7.5-9v-4l-1 .5-6.5 4.5-6.5-4.5V44h6.5zm6.5 3.7V50c0 .3-.1 6.7-6 7.9v-6l6-4.2zm-7 4.2v6c-5.9-1.2-6-7.6-6-7.9v-2.3l6 4.2z" class="bpst0"/></svg><svg id="dc-y" width="18" height="18" x="54" y="118" viewBox="-42 42 18 18"><style>.bqst0{fill-rule:evenodd;clip-rule:evenodd;fill:#ffb800}</style><path d="M-27.5 52c-.7 0-1.2-.4-1.4-1h-9.2s0 .1-.1.1l4 4 .1-.1v-3h1v3.1c.6.2 1 .7 1 1.4 0 .8-.7 1.5-1.5 1.5s-1.5-.7-1.5-1.5c0-.2.1-.4.2-.6l-4-4c-.2.1-.4.2-.6.2-.8 0-1.5-.7-1.5-1.5s.7-1.5 1.5-1.5c.7 0 1.2.4 1.4 1h9.2s0-.1.1-.1l-4-4-.1.1V49h-1v-3.1c-.6-.2-1-.7-1-1.4 0-.8.7-1.5 1.5-1.5s1.5.7 1.5 1.5c0 .2-.1.4-.2.6l4 4c.2-.1.4-.2.6-.2.8 0 1.5.7 1.5 1.5s-.7 1.6-1.5 1.6z" class="bqst0"/></svg><svg id="dc-y-#FFFFFF" width="18" height="18" x="72" y="118" viewBox="-42 42 18 18"><style>.brst0{fill-rule:evenodd;clip-rule:evenodd;fill:#fff}</style><path d="M-27.5 52c-.7 0-1.2-.4-1.4-1h-9.2s0 .1-.1.1l4 4 .1-.1v-3h1v3.1c.6.2 1 .7 1 1.4 0 .8-.7 1.5-1.5 1.5s-1.5-.7-1.5-1.5c0-.2.1-.4.2-.6l-4-4c-.2.1-.4.2-.6.2-.8 0-1.5-.7-1.5-1.5s.7-1.5 1.5-1.5c.7 0 1.2.4 1.4 1h9.2s0-.1.1-.1l-4-4-.1.1V49h-1v-3.1c-.6-.2-1-.7-1-1.4 0-.8.7-1.5 1.5-1.5s1.5.7 1.5 1.5c0 .2-.1.4-.2.6l4 4c.2-.1.4-.2.6-.2.8 0 1.5.7 1.5 1.5s-.7 1.6-1.5 1.6z" class="brst0"/></svg><svg id="distribute-y" width="18" height="18" x="90" y="118" viewBox="-42 42 18 18"><style>.bsst0{fill:#ffb800}</style><path d="M-30.5 47l-5.5 3v6l5.5 3 5.5-3v-6l-5.5-3zm4.5 7.9l-2.1-1.2c-.1.3-.3.6-.5.9l2 1.1-3.9 2.1-3.9-2.1 2-1.1c-.2-.3-.4-.6-.5-.9l-2.1 1.2v-3.8l2.1 1.2c.1-.3.3-.6.5-.9l-2-1.1 3.9-2.1 3.9 2.1-2 1.1c.2.3.4.6.5.9l2.1-1.2v3.8zm-4.5-3.1c-.7 0-1.2.6-1.2 1.2 0 .7.6 1.2 1.2 1.2s1.2-.6 1.2-1.2c.1-.7-.5-1.2-1.2-1.2zm-9.5-5.3c0-1.4 2.7-2.5 6-2.5s6 1.1 6 2.5c0 .2 0 .3-.1.5h1.1v-.5c0-1.9-3.1-3.5-7-3.5s-7 1.6-7 3.5v8c0 1.4 1.6 2.6 4 3.2v-1c-1.8-.4-3-1.2-3-2.2v-2.2c.7.6 1.8 1.1 3 1.4v-1c-1.8-.4-3-1.2-3-2.2v-2.2c.7.6 1.8 1.1 3 1.4v-1c-1.8-.5-3-1.3-3-2.2z" class="bsst0"/></svg><svg id="distribute-y-#FFFFFF" width="18" height="18" x="108" y="118" viewBox="-42 42 18 18"><style>.btst0{fill:#fff}</style><path d="M-30.5 47l-5.5 3v6l5.5 3 5.5-3v-6l-5.5-3zm4.5 7.9l-2.1-1.2c-.1.3-.3.6-.5.9l2 1.1-3.9 2.1-3.9-2.1 2-1.1c-.2-.3-.4-.6-.5-.9l-2.1 1.2v-3.8l2.1 1.2c.1-.3.3-.6.5-.9l-2-1.1 3.9-2.1 3.9 2.1-2 1.1c.2.3.4.6.5.9l2.1-1.2v3.8zm-4.5-3.1c-.7 0-1.2.6-1.2 1.2 0 .7.6 1.2 1.2 1.2s1.2-.6 1.2-1.2c.1-.7-.5-1.2-1.2-1.2zm-9.5-5.3c0-1.4 2.7-2.5 6-2.5s6 1.1 6 2.5c0 .2 0 .3-.1.5h1.1v-.5c0-1.9-3.1-3.5-7-3.5s-7 1.6-7 3.5v8c0 1.4 1.6 2.6 4 3.2v-1c-1.8-.4-3-1.2-3-2.2v-2.2c.7.6 1.8 1.1 3 1.4v-1c-1.8-.4-3-1.2-3-2.2v-2.2c.7.6 1.8 1.1 3 1.4v-1c-1.8-.5-3-1.3-3-2.2z" class="btst0"/></svg><svg id="dm-y" width="18" height="18" x="140" viewBox="-42 42 18 18"><style>.bust0{fill:#ffb800}</style><path d="M-25 54V44h-16v13h16v-1h-15v-8h14v6h1zm-15-7v-2h14v2h-14zm10 3h-1v-1h-1v1h-4v1h4v1h1v-1h1v-1zm-4 5v-1h4v-1h-4v-1h-1v1h-1v1h1v1h1z" class="bust0"/></svg><svg id="dm-y-#FFFFFF" width="18" height="18" x="140" y="18" viewBox="-42 42 18 18"><style>.bvst0{fill:#fff}</style><path d="M-25 54V44h-16v13h16v-1h-15v-8h14v6h1zm-15-7v-2h14v2h-14zm10 3h-1v-1h-1v1h-4v1h4v1h1v-1h1v-1zm-4 5v-1h4v-1h-4v-1h-1v1h-1v1h1v1h1z" class="bvst0"/></svg><svg id="dna-y" width="18" height="18" x="140" y="36" viewBox="-1 -1 18 18"><style>.bwst0{fill:#ffb800}</style><g id="bwXMLID_10_"><path id="bwXMLID_11_" d="M10 9.1l-5.5 3-1.5-.8V9.5l4-2.2V6.2L3 8.4V4.9l4.7-2.6c.4.7 1.3.9 2 .5s1-1.3.6-2-1.3-1-2-.6c-.5.2-.8.7-.8 1.1l-5.4 3H2v7.6l2.6 1.3v-.1l5.4-2.9V9.1z" class="bwst0"/><path id="bwXMLID_12_" d="M16 11.4v-7l-3-1.5-.1.1L8 5.6v1.1L13.1 4 15 5v1.4l-4 2.2v1.1l4-2.2v3.4l-4.9 2.7c-.4-.5-1.2-.7-1.9-.4-.7.4-1 1.3-.6 2s1.3 1 2 .6c.5-.3.8-.8.8-1.3l5.6-3.1z" class="bwst0"/></g></svg><svg id="dna-y-#FFFFFF" width="18" height="18" x="140" y="54" viewBox="-1 -1 18 18"><style>.bxst0{fill:#fff}</style><path d="M10 9.1l-5.5 3-1.5-.8V9.5l4-2.2V6.2L3 8.4V4.9l4.7-2.6c.4.7 1.3.9 2 .5s1-1.3.6-2-1.3-1-2-.6c-.5.2-.8.7-.8 1.1l-5.4 3H2v7.6l2.6 1.3v-.1l5.4-2.9V9.1z" class="bxst0"/><path d="M16 11.4v-7l-3-1.5-.1.1L8 5.6v1.1L13.1 4 15 5v1.4l-4 2.2v1.1l4-2.2v3.4l-4.9 2.7c-.4-.5-1.2-.7-1.9-.4-.7.4-1 1.3-.6 2s1.3 1 2 .6c.5-.3.8-.8.8-1.3l5.6-3.1z" class="bxst0"/></svg><svg id="down-icon-new" width="18" height="18" x="140" y="72" viewBox="-1 -1 18 18"><g fill="#888"><path d="M5.212 5.289L9.455 9.53 8.04 10.945 3.798 6.703z"/><path d="M12.377 6.74l-4.243 4.243L6.72 9.569l4.242-4.243z"/></g></svg><svg id="down-icon-new" width="18" height="18" x="140" y="90" viewBox="-1 -1 18 18"><style>.bzst0{fill:#888}</style><path d="M3.6 7.2h6v2h-6z" class="bzst0" transform="rotate(-134.999 6.584 8.172)"/><path d="M6.5 7.2h6v2h-6z" class="bzst0" transform="rotate(-45.001 9.43 8.153)"/></svg><svg id="dts-y" width="18" height="18" x="140" y="108" viewBox="-1 -1 18 18"><style>.cast0{fill:#ffb800}</style><path d="M10.5 16c-3 0-5.5-2.5-5.5-5.5S7.5 5 10.5 5 16 7.5 16 10.5 13.5 16 10.5 16zm0-10C8 6 6 8 6 10.5S8 15 10.5 15s4.5-2 4.5-4.5S13 6 10.5 6zm-.5 7H9v-1H8v-1h5v1h-3v1zM8 9h3V8h1v1h1v1H8V9zM7 1C3.7 1 1 2.1 1 3.5c0 1 1.5 1.9 3.7 2.3-.3.3-.5.6-.6.9-1.3-.3-2.4-.8-3.1-1.4v2.2c0 .8.8 1.4 2.1 1.9-.1.3-.1.6-.1 1-.8-.3-1.5-.6-2-1.1v2.2c0 .9 1.1 1.6 2.7 2.1l.6 1.2C1.8 14.2 0 13 0 11.5v-8C0 1.6 3.1 0 7 0s7 1.6 7 3.5v.4c-.3-.2-.7-.3-1-.4C12.9 2.1 10.3 1 7 1z" class="cast0"/></svg><svg id="dts-y-#FFFFFF" width="18" height="18" y="136" viewBox="-1 -1 18 18"><style>.cbst0{fill:#fff}</style><path d="M10.5 16c-3 0-5.5-2.5-5.5-5.5S7.5 5 10.5 5 16 7.5 16 10.5 13.5 16 10.5 16zm0-10C8 6 6 8 6 10.5S8 15 10.5 15s4.5-2 4.5-4.5S13 6 10.5 6zm-.5 7H9v-1H8v-1h5v1h-3v1zM8 9h3V8h1v1h1v1H8V9zM7 1C3.7 1 1 2.1 1 3.5c0 1 1.5 1.9 3.7 2.3-.3.3-.5.6-.6.9-1.3-.3-2.4-.8-3.1-1.4v2.2c0 .8.8 1.4 2.1 1.9-.1.3-.1.6-.1 1-.8-.3-1.5-.6-2-1.1v2.2c0 .9 1.1 1.6 2.7 2.1l.6 1.2C1.8 14.2 0 13 0 11.5v-8C0 1.6 3.1 0 7 0s7 1.6 7 3.5v.4c-.3-.2-.7-.3-1-.4C12.9 2.1 10.3 1 7 1z" class="cbst0"/></svg><svg id="emr-y" width="18" height="18" x="18" y="136" viewBox="-1 -1 18 18"><style>.ccst0{fill-rule:evenodd;clip-rule:evenodd;fill:#ffb800}</style><path d="M0 15v-2h1v1h14v-1h1v2H0zm11-4V6h3c.6 0 1 .4 1 1v1c0 .4 0 .8-.5.9L16 11h-1.6l-1.3-2H12v2h-1zm3-3V7h-2v1h2zm-9 3V6h1l1.5 3L9 6h1v5H9V8.6L7.5 11 6 8.5V11H5zm10-9H1v1H0V1h16v2h-1V2zM4 6v1H1v1h3v1H1v1h3v1H0V6h4z" class="ccst0"/></svg><svg id="emr-y-#FFFFFF" width="18" height="18" x="36" y="136" viewBox="-1 -1 18 18"><style>.cdst0{fill-rule:evenodd;clip-rule:evenodd;fill:#fff}</style><path d="M0 15v-2h1v1h14v-1h1v2H0zm11-4V6h3c.6 0 1 .4 1 1v1c0 .4 0 .8-.5.9L16 11h-1.6l-1.3-2H12v2h-1zm3-3V7h-2v1h2zm-9 3V6h1l1.5 3L9 6h1v5H9V8.6L7.5 11 6 8.5V11H5zm10-9H1v1H0V1h16v2h-1V2zM4 6v1H1v1h3v1H1v1h3v1H0V6h4z" class="cdst0"/></svg><svg id="face-y" width="18" height="18" x="54" y="136" viewBox="-42 42 18 18"><style>.cest0{fill-rule:evenodd;clip-rule:evenodd;fill:#ffb800}</style><path d="M-33 51c1.1 0 2-.9 2-2s-.9-2-2-2-2 .9-2 2 .9 2 2 2zm0-3c.6 0 1 .4 1 1s-.4 1-1 1-1-.4-1-1 .4-1 1-1zm-6-3h3v-1h-4v4h1v-3zm0 9h-1v4h4v-1h-3v-3zm9-10v1h3v3h1v-4h-4zm3 13h-3v1h4v-4h-1v3zm-2-2v-1c0-1.1-.9-2-2-2h-4c-1.1 0-2 .9-2 2v1h1v-1c0-.5.4-1 1-1h4c.5 0 1 .4 1 1v1h1z" class="cest0"/></svg><svg id="face-y-#FFFFFF" width="18" height="18" x="72" y="136" viewBox="-42 42 18 18"><style>.cfst0{fill-rule:evenodd;clip-rule:evenodd;fill:#fff}</style><path d="M-33 51c1.1 0 2-.9 2-2s-.9-2-2-2-2 .9-2 2 .9 2 2 2zm0-3c.6 0 1 .4 1 1s-.4 1-1 1-1-.4-1-1 .4-1 1-1zm-6-3h3v-1h-4v4h1v-3zm0 9h-1v4h4v-1h-3v-3zm9-10v1h3v3h1v-4h-4zm3 13h-3v1h4v-4h-1v3zm-2-2v-1c0-1.1-.9-2-2-2h-4c-1.1 0-2 .9-2 2v1h1v-1c0-.5.4-1 1-1h4c.5 0 1 .4 1 1v1h1z" class="cfst0"/></svg><svg id="gaap-y" width="18" height="18" x="90" y="136" viewBox="-1 -1 18 18"><path fill="#FFB800" fill-rule="evenodd" d="M7 2.903V6h2.454L10 5H8V2.913A1.496 1.496 0 0 0 7.516 0a1.5 1.5 0 0 0-1.252 2.325L2 10h1l3.951-7.112c.016.007.033.009.049.015zM13 5h-1l-3.946 7.104c-.018-.007-.036-.011-.054-.017V9H5.546L5 10h2v2.097A1.496 1.496 0 0 0 7.516 15a1.5 1.5 0 0 0 1.234-2.35L13 5z" clip-rule="evenodd"/></svg><svg id="gaap-y-#FFFFFF" width="18" height="18" x="108" y="136" viewBox="-1 -1 18 18">&amp;lt;!ENTITY ns_ai &amp;quot;http://ns.adobe.com/AdobeIllustrator/10.0/&amp;quot;&amp;gt;&amp;lt;!ENTITY ns_graphs &amp;quot;http://ns.adobe.com/Graphs/1.0/&amp;quot;&amp;gt;&amp;lt;!ENTITY ns_vars &amp;quot;http://ns.adobe.com/Variables/1.0/&amp;quot;&amp;gt;&amp;lt;!ENTITY ns_imrep &amp;quot;http://ns.adobe.com/ImageReplacement/1.0/&amp;quot;&amp;gt;&amp;lt;!ENTITY ns_sfw &amp;quot;http://ns.adobe.com/SaveForWeb/1.0/&amp;quot;&amp;gt;&amp;lt;!ENTITY ns_custom &amp;quot;http://ns.adobe.com/GenericCustomNamespace/1.0/&amp;quot;&amp;gt;&amp;lt;!ENTITY ns_adobe_xpath &amp;quot;http://ns.adobe.com/XPath/1.0/&amp;quot;&amp;gt;]&amp;gt;<path fill="#FFF" fill-rule="evenodd" d="M7 2.903V6h2.454L10 5H8V2.913A1.496 1.496 0 0 0 7.516 0a1.5 1.5 0 0 0-1.252 2.325L2 10h1l3.951-7.112c.016.007.033.009.049.015zM13 5h-1l-3.946 7.104c-.018-.007-.036-.011-.054-.017V9H5.546L5 10h2v2.097A1.496 1.496 0 0 0 7.516 15a1.5 1.5 0 0 0 1.234-2.35L13 5z" clip-rule="evenodd"/></svg><svg id="gvoice-y" width="18" height="18" x="126" y="136" viewBox="-1 -1 18 18"><style>.cist0{fill-rule:evenodd;clip-rule:evenodd;fill:#ffb800}</style><path d="M8 13c2.2 0 4-1.9 4-4.2V4.2C12 1.9 10.2 0 8 0S4 1.9 4 4.2v4.6C4 11.1 5.8 13 8 13zM5 9h2V8H5V7h2V6H5V5h2V4H5v-.2C5 2.2 6.4 1 8 1c1.7 0 3 1.3 3 2.8V4H9v1h2v1H9v1h2v1H9v1h2v.2c0 1.5-1.3 2.8-3 2.8s-3-1.3-3-2.8V9zm8-1v1.3c0 2.6-2.2 4.7-5 4.7s-5-2.1-5-4.7V8H2v1.1C2 12.4 4.7 15 8 15s6-2.6 6-5.9V8h-1z" class="cist0"/></svg><svg id="gvoice-y-#FFFFFF" width="18" height="18" x="158" viewBox="-1 -1 18 18"><style>.cjst0{fill-rule:evenodd;clip-rule:evenodd;fill:#fff}</style><path d="M8 13c2.2 0 4-1.9 4-4.2V4.2C12 1.9 10.2 0 8 0S4 1.9 4 4.2v4.6C4 11.1 5.8 13 8 13zM5 9h2V8H5V7h2V6H5V5h2V4H5v-.2C5 2.2 6.4 1 8 1c1.7 0 3 1.3 3 2.8V4H9v1h2v1H9v1h2v1H9v1h2v.2c0 1.5-1.3 2.8-3 2.8s-3-1.3-3-2.8V9zm8-1v1.3c0 2.6-2.2 4.7-5 4.7s-5-2.1-5-4.7V8H2v1.1C2 12.4 4.7 15 8 15s6-2.6 6-5.9V8h-1z" class="cjst0"/></svg><svg id="hbase-y" width="18" height="18" x="158" y="18" viewBox="-42 42 18 18"><style>.ckst0{fill:#ffb800}</style><path d="M-33 49h-1v9h1v-4h6v4h1v-5h-7v-4zm6 0v3h1v-3h-1zm-13-2.5c0-1.4 2.7-2.5 6-2.5s6 1.1 6 2.5c0 .6-.5 1.1-1.2 1.5h2.2v-1.5c0-1.9-3.1-3.5-7-3.5s-7 1.6-7 3.5v8c0 1.8 2.6 3.2 6 3.5v-1c-2.8-.2-5-1.2-5-2.5v-2.2c1.1.9 2.9 1.5 5 1.7v-1c-2.8-.2-5-1.2-5-2.5v-2.2c1.1.9 2.9 1.5 5 1.7v-1c-2.8-.2-5-1.3-5-2.5z" class="ckst0"/></svg><svg id="hbase-y-#FFFFFF" width="18" height="18" x="158" y="36" viewBox="-42 42 18 18"><style>.clst0{fill:#fff}</style><path d="M-33 49h-1v9h1v-4h6v4h1v-5h-7v-4zm6 0v3h1v-3h-1zm-13-2.5c0-1.4 2.7-2.5 6-2.5s6 1.1 6 2.5c0 .6-.5 1.1-1.2 1.5h2.2v-1.5c0-1.9-3.1-3.5-7-3.5s-7 1.6-7 3.5v8c0 1.8 2.6 3.2 6 3.5v-1c-2.8-.2-5-1.2-5-2.5v-2.2c1.1.9 2.9 1.5 5 1.7v-1c-2.8-.2-5-1.2-5-2.5v-2.2c1.1.9 2.9 1.5 5 1.7v-1c-2.8-.2-5-1.3-5-2.5z" class="clst0"/></svg><svg id="hei-load-y" width="18" height="18" x="158" y="54" viewBox="-42 42 18 18"><style>.cmst0{fill:#ffb800}</style><path d="M-35 50h-3.1c-.2-.6-.8-1-1.4-1-.8 0-1.5.7-1.5 1.5s.7 1.5 1.5 1.5c.7 0 1.2-.4 1.4-1h3.1v6h4v-1h-3v-5h3v-1h-3v-5h3v-1h-4v6zm7.5-4c.8 0 1.5-.7 1.5-1.5s-.7-1.5-1.5-1.5-1.5.7-1.5 1.5.7 1.5 1.5 1.5zm0 3c-.8 0-1.5.7-1.5 1.5s.7 1.5 1.5 1.5 1.5-.7 1.5-1.5-.7-1.5-1.5-1.5zm0 6c-.8 0-1.5.7-1.5 1.5s.7 1.5 1.5 1.5 1.5-.7 1.5-1.5-.7-1.5-1.5-1.5z" class="cmst0"/></svg><svg id="hei-load-y-#FFFFFF" width="18" height="18" x="158" y="72" viewBox="-42 42 18 18"><style>.cnst0{fill:#fff}</style><path d="M-35 50h-3.1c-.2-.6-.8-1-1.4-1-.8 0-1.5.7-1.5 1.5s.7 1.5 1.5 1.5c.7 0 1.2-.4 1.4-1h3.1v6h4v-1h-3v-5h3v-1h-3v-5h3v-1h-4v6zm7.5-4c.8 0 1.5-.7 1.5-1.5s-.7-1.5-1.5-1.5-1.5.7-1.5 1.5.7 1.5 1.5 1.5zm0 3c-.8 0-1.5.7-1.5 1.5s.7 1.5 1.5 1.5 1.5-.7 1.5-1.5-.7-1.5-1.5-1.5zm0 6c-.8 0-1.5.7-1.5 1.5s.7 1.5 1.5 1.5 1.5-.7 1.5-1.5-.7-1.5-1.5-1.5z" class="cnst0"/></svg><svg id="hei-private-y" width="18" height="18" x="158" y="90" viewBox="-42 42 18 18"><style>.cost0{fill-rule:evenodd;clip-rule:evenodd;fill:#ffb800}</style><path d="M-29 49v-2c-.3-2.2-2.2-4-4.5-4s-4.2 1.8-4.5 4v2h-2v10h13V49h-2zm-8-1.5c0-1.9 1.6-3.5 3.5-3.5s3.5 1.6 3.5 3.5V49h-7v-1.5zm9 10.5h-11v-8h11v8zm-4-2h-1v-4h1v-1h-3v1h1v4h-1v1h3v-1z" class="cost0"/></svg><svg id="hei-private-y-#FFFFFF" width="18" height="18" x="158" y="108" viewBox="-42 42 18 18"><style>.cpst0{fill-rule:evenodd;clip-rule:evenodd;fill:#fff}</style><path d="M-29 49v-2c-.3-2.2-2.2-4-4.5-4s-4.2 1.8-4.5 4v2h-2v10h13V49h-2zm-8-1.5c0-1.9 1.6-3.5 3.5-3.5s3.5 1.6 3.5 3.5V49h-7v-1.5zm9 10.5h-11v-8h11v8zm-4-2h-1v-4h1v-1h-3v1h1v4h-1v1h3v-1z" class="cpst0"/></svg><svg id="heishi-y" width="18" height="18" x="158" y="126" viewBox="-42 42 18 18"><style>.cqst0{fill:#ffb800}</style><path d="M-30.5 47l-5.5 3v6l5.5 3 5.5-3v-1.1l-1 .5-4.5 2.5-4.5-2.5v-4.8l4.5-2.5 4.5 2.5-4.5 2.5v1.1l4.5-2.5 1-.5V50l-5.5-3zm4.5 6l-3 1.6v1.1l3-1.6 1-.5v-1.1l-1 .5zm-14-6.5c0-1.4 2.7-2.5 6-2.5s6 1.1 6 2.5c0 .2 0 .3-.1.5h1.1v-.5c0-1.9-3.1-3.5-7-3.5s-7 1.6-7 3.5v8c0 1.4 1.6 2.6 4 3.2v-1c-1.8-.4-3-1.2-3-2.2v-2.2c.7.6 1.8 1.1 3 1.4v-1c-1.8-.4-3-1.2-3-2.2v-2.2c.7.6 1.8 1.1 3 1.4v-1c-1.8-.5-3-1.3-3-2.2z" class="cqst0"/></svg><svg id="heishi-y-#FFFFFF" width="18" height="18" y="154" viewBox="-42 42 18 18"><style>.crst0{fill:#fff}</style><path d="M-30.5 47l-5.5 3v6l5.5 3 5.5-3v-1.1l-1 .5-4.5 2.5-4.5-2.5v-4.8l4.5-2.5 4.5 2.5-4.5 2.5v1.1l4.5-2.5 1-.5V50l-5.5-3zm4.5 6l-3 1.6v1.1l3-1.6 1-.5v-1.1l-1 .5zm-14-6.5c0-1.4 2.7-2.5 6-2.5s6 1.1 6 2.5c0 .2 0 .3-.1.5h1.1v-.5c0-1.9-3.1-3.5-7-3.5s-7 1.6-7 3.5v8c0 1.4 1.6 2.6 4 3.2v-1c-1.8-.4-3-1.2-3-2.2v-2.2c.7.6 1.8 1.1 3 1.4v-1c-1.8-.4-3-1.2-3-2.2v-2.2c.7.6 1.8 1.1 3 1.4v-1c-1.8-.5-3-1.3-3-2.2z" class="crst0"/></svg><svg id="hide" width="18" height="18" x="18" y="154" viewBox="-1 -1 18 18"><style>.csst0{fill-rule:evenodd;clip-rule:evenodd;fill:#bbb}</style><path d="M7.9 4.5l-.7-.7-3.5 3.5L3 8l.7.7 3.5 3.5.7-.7L4.4 8l3.5-3.5zm4 0l-.7-.7L7 8l4.2 4.2.7-.7L8.4 8l3.5-3.5z" class="csst0"/></svg><svg id="ico-set-menu" width="18" height="18" x="36" y="154" viewBox="-1 -1 18 18"><path fill="#fff" d="M8 3c2.757 0 5 2.243 5 5s-2.243 5-5 5-5-2.243-5-5 2.243-5 5-5m0-1a6 6 0 1 0 0 12A6 6 0 0 0 8 2z"/><path fill="#fff" d="M8 7c.551 0 1 .449 1 1s-.449 1-1 1-1-.449-1-1 .449-1 1-1m0-1a2 2 0 1 0-.001 3.999A2 2 0 0 0 8 6zM7 13.91V16h2v-2.09c-.326.055-.659.09-1 .09s-.674-.035-1-.09zM9 2.09V0H7v2.09c.326-.055.659-.09 1-.09s.674.035 1 .09zM13.91 9H16V7h-2.09c.055.326.09.659.09 1s-.035.674-.09 1zM2.09 7H0v2h2.09C2.035 8.674 2 8.341 2 8s.035-.674.09-1zm10.797-2.473l1.477-1.477-1.414-1.414-1.477 1.477a6.007 6.007 0 0 1 1.414 1.414zm-9.774 6.946L1.636 12.95l1.414 1.414 1.477-1.477a6.007 6.007 0 0 1-1.414-1.414zm8.36 1.414l1.477 1.477 1.414-1.414-1.477-1.477a6.007 6.007 0 0 1-1.414 1.414zM4.527 3.113L3.05 1.636 1.636 3.05l1.477 1.477a6.007 6.007 0 0 1 1.414-1.414z"/></svg><svg id="ico-set-menu-hover" width="18" height="18" x="54" y="154" viewBox="-1 -1 18 18"><path fill="#F5B317" d="M8 3c2.757 0 5 2.243 5 5s-2.243 5-5 5-5-2.243-5-5 2.243-5 5-5m0-1a6 6 0 1 0 0 12A6 6 0 0 0 8 2z"/><path fill="#F5B317" d="M8 7c.551 0 1 .449 1 1s-.449 1-1 1-1-.449-1-1 .449-1 1-1m0-1a2 2 0 1 0-.001 3.999A2 2 0 0 0 8 6zM7 13.91V16h2v-2.09c-.326.055-.659.09-1 .09s-.674-.035-1-.09zM9 2.09V0H7v2.09c.326-.055.659-.09 1-.09s.674.035 1 .09zM13.91 9H16V7h-2.09c.055.326.09.659.09 1s-.035.674-.09 1zM2.09 7H0v2h2.09C2.035 8.674 2 8.341 2 8s.035-.674.09-1zm10.797-2.473l1.477-1.477-1.414-1.414-1.477 1.477a6.007 6.007 0 0 1 1.414 1.414zm-9.774 6.946L1.636 12.95l1.414 1.414 1.477-1.477a6.007 6.007 0 0 1-1.414-1.414zm8.36 1.414l1.477 1.477 1.414-1.414-1.477-1.477a6.007 6.007 0 0 1-1.414 1.414zM4.527 3.113L3.05 1.636 1.636 3.05l1.477 1.477a6.007 6.007 0 0 1 1.414-1.414z"/></svg><svg id="interact-y" width="18" height="18" x="72" y="154" viewBox="-42 42 18 18"><style>.cvst0{fill:#ffb800}</style><path d="M-34 49.3v3.3c0 .2.3.4.5.3l2.7-1.7c.2-.1.2-.4 0-.5l-2.7-1.7c-.2-.1-.5.1-.5.3z" class="cvst0"/><path d="M-38 45h10.6l.4.4V54h1v-9l-1-1h-14v.5l3 1.5zm10 11v1h-10.6l-.4-.4V48h-1v9l1 1h14v-.5z" class="cvst0"/></svg><svg id="interact-y-#FFFFFF" width="18" height="18" x="90" y="154" viewBox="-42 42 18 18"><style>.cwst0{fill:#fff}</style><path d="M-34 49.3v3.3c0 .2.3.4.5.3l2.7-1.7c.2-.1.2-.4 0-.5l-2.7-1.7c-.2-.1-.5.1-.5.3z" class="cwst0"/><path d="M-38 45h10.6l.4.4V54h1v-9l-1-1h-14v.5l3 1.5zm10 11v1h-10.6l-.4-.4V48h-1v9l1 1h14v-.5z" class="cwst0"/></svg><svg id="ir-y" width="18" height="18" x="108" y="154" viewBox="-1 -1 18 18"><style>.cxst0{fill:#ffb800}</style><path d="M13.5 9c-.3 0-.6-.1-.9-.3l-3.8 3.2c.1.2.2.4.2.6 0 .8-.7 1.5-1.5 1.5S6 13.3 6 12.5c0-.2.1-.4.2-.6L2.4 8.7c-.3.2-.6.3-.9.3C.7 9 0 8.3 0 7.5S.7 6 1.5 6c.3 0 .6.1.9.3l3.8-3.2c-.1-.2-.2-.4-.2-.6C6 1.7 6.7 1 7.5 1S9 1.7 9 2.5c0 .2-.1.4-.2.6l3.8 3.2c.3-.2.6-.3.9-.3.8 0 1.5.7 1.5 1.5S14.3 9 13.5 9zM2.9 7.2c.1.1.1.2.1.3 0 .1 0 .2-.1.3l3.9 3.3h.1V3.9h-.1L2.9 7.2zm9.2 0l-4-3.4H8V11h.1L12 7.7v-.2c0-.1 0-.2.1-.3z" class="cxst0"/></svg><svg id="ir-y-#FFFFFF" width="18" height="18" x="126" y="154" viewBox="-1 -1 18 18"><style>.cyst0{fill:#fff}</style><path d="M13.5 9c-.3 0-.6-.1-.9-.3l-3.8 3.2c.1.2.2.4.2.6 0 .8-.7 1.5-1.5 1.5S6 13.3 6 12.5c0-.2.1-.4.2-.6L2.4 8.7c-.3.2-.6.3-.9.3C.7 9 0 8.3 0 7.5S.7 6 1.5 6c.3 0 .6.1.9.3l3.8-3.2c-.1-.2-.2-.4-.2-.6C6 1.7 6.7 1 7.5 1S9 1.7 9 2.5c0 .2-.1.4-.2.6l3.8 3.2c.3-.2.6-.3.9-.3.8 0 1.5.7 1.5 1.5S14.3 9 13.5 9zM2.9 7.2c.1.1.1.2.1.3 0 .1 0 .2-.1.3l3.9 3.3h.1V3.9h-.1L2.9 7.2zm9.2 0l-4-3.4H8V11h.1L12 7.7v-.2c0-.1 0-.2.1-.3z" class="cyst0"/></svg><svg id="link-icon" width="18" height="18" x="144" y="154" viewBox="-1 -1 18 18"><g fill="#888"><path d="M8 3l1.793 1.793L6 8.586 7.414 10l3.793-3.793L13 8V3z"/><path d="M11 11H5V5h2V3H3v10h10V9h-2z"/></g></svg><svg id="live-y" width="18" height="18" x="176" viewBox="-42 42 18 18"><style>.dast0{fill:#ffb800}</style><path d="M-26 44h-14v14h14V47h-1v7h-12v-9h13v-1zm-1 11v2h-12v-2h12zm-7-7.1v3.3c0 .2.3.4.5.3l2.7-1.7c.2-.1.2-.4 0-.5l-2.7-1.7c-.2-.1-.5 0-.5.3z" class="dast0"/></svg><svg id="live-y-#FFFFFF" width="18" height="18" x="176" y="18" viewBox="-42 42 18 18"><style>.dbst0{fill:#fff}</style><path d="M-26 44h-14v14h14V47h-1v7h-12v-9h13v-1zm-1 11v2h-12v-2h12zm-7-7.1v3.3c0 .2.3.4.5.3l2.7-1.7c.2-.1.2-.4 0-.5l-2.7-1.7c-.2-.1-.5 0-.5.3z" class="dbst0"/></svg><svg id="load-y" width="18" height="18" x="176" y="36" viewBox="-42 42 18 18"><style>.dcst0{fill-rule:evenodd;clip-rule:evenodd;fill:#ffb800}</style><path d="M-39 57h7v-1h-6v-5h6v-1h-6v-5h6v-1h-7v13zm10.5-11c.8 0 1.5-.7 1.5-1.5s-.7-1.5-1.5-1.5-1.5.7-1.5 1.5.7 1.5 1.5 1.5zm0 3c-.8 0-1.5.7-1.5 1.5s.7 1.5 1.5 1.5 1.5-.7 1.5-1.5-.7-1.5-1.5-1.5zm0 6c-.8 0-1.5.7-1.5 1.5s.7 1.5 1.5 1.5 1.5-.7 1.5-1.5-.7-1.5-1.5-1.5z" class="dcst0"/></svg><svg id="load-y-#FFFFFF" width="18" height="18" x="64" y="24" viewBox="-42 42 18 18"><style>.ddst0{fill-rule:evenodd;clip-rule:evenodd;fill:#fff}</style><path d="M-39 57h7v-1h-6v-5h6v-1h-6v-5h6v-1h-7v13zm10.5-11c.8 0 1.5-.7 1.5-1.5s-.7-1.5-1.5-1.5-1.5.7-1.5 1.5.7 1.5 1.5 1.5zm0 3c-.8 0-1.5.7-1.5 1.5s.7 1.5 1.5 1.5 1.5-.7 1.5-1.5-.7-1.5-1.5-1.5zm0 6c-.8 0-1.5.7-1.5 1.5s.7 1.5 1.5 1.5 1.5-.7 1.5-1.5-.7-1.5-1.5-1.5z" class="ddst0"/></svg><svg id="log-y" width="18" height="18" x="176" y="72" viewBox="-42 42 18 18"><style>.dest0{fill:#ffb800}</style><path d="M-30 51h-6v1h6v-1zm1-8h-8v3h8v-3zm-1 2h-6v-1h6v1zm2-1v1h1v12h-12V45h1v-1h-2v14h14V44h-2zm-2 5h-6v1h6v-1zm-6 5h6v-1h-6v1z" class="dest0"/></svg><svg id="log-y-#FFFFFF" width="18" height="18" x="176" y="90" viewBox="-42 42 18 18"><style>.dfst0{fill:#fff}</style><path d="M-30 51h-6v1h6v-1zm1-8h-8v3h8v-3zm-1 2h-6v-1h6v1zm2-1v1h1v12h-12V45h1v-1h-2v14h14V44h-2zm-2 5h-6v1h6v-1zm-6 5h6v-1h-6v1z" class="dfst0"/></svg><svg id="logo" width="86" height="24" viewBox="-1 -1 86 24"><style>.dgst0{fill:#fff}</style><g id="dgXMLID_26_"><g id="dgXMLID_43_"><path id="dgXMLID_46_" d="M28.4 10c-1.3-1.3-3-2.1-5-2.1-1.7 0-3.2.6-4.4 1.6-.6.5-1.1 1-1.9 1.7C16.6 11.6 6 21.9 6 21.9c.6.1 1.4.1 2 .1h13.3c1 0 1.7 0 2.4-.1 1.6-.1 3.2-.7 4.5-2 2.8-2.7 2.9-7.1.2-9.9zm-2.1 8c-.5.5-1.5 1.1-3.1 1.2H12.7c3.1-3 5.8-5.6 6.1-5.9.3-.3.9-.9 1.5-1.4 1.2-1.1 2.3-1.3 3-1.3 1.2 0 2.3.5 3.1 1.3 1.6 1.7 1.6 4.4-.1 6.1z" class="dgst0"/><path id="dgXMLID_45_" d="M11.2 9.4C10 8.4 8.6 7.9 7 7.9c-2 0-3.7.8-5 2.1-2.7 2.8-2.7 7.2.1 10 1.1 1.1 2.5 1.7 3.9 1.9l2.7-2.6H7.1c-1.6-.1-2.5-.7-3.1-1.2-1.7-1.7-1.7-4.4-.1-6.1.8-.8 1.9-1.3 3.1-1.3.7 0 1.8.2 2.9 1.2.6.5 1.8 1.6 2.3 2l2-1.9c-.8-.9-2.2-2.1-3-2.6z" class="dgst0"/><path id="dgXMLID_44_" d="M24.1 6.3C22.8 2.6 19.3 0 15.2 0c-4.7 0-8.6 3.5-9.3 8 .3-.1.7-.1 1.1-.1.6 0 1.1.1 1.6.2.6-3 3.3-5.3 6.5-5.3 2.7 0 5 1.6 6.1 3.9h.1c.8-.2 1.7-.3 2.7-.3.1 0 .1 0 .1-.1z" class="dgst0"/></g><g id="dgXMLID_27_"><path id="dgXMLID_40_" d="M65 3.7h-9V5h2.7v4.7h-3.1V11h3.1v8h1.4v-7.9h3.4v7.8h2.7v-1.3H65V3.7zm-4.8 6.1V5h3.4v4.7h-3.4z" class="dgst0"/><path id="dgXMLID_39_" d="M40.2 15.4h7.1v1.3h-7.1z" class="dgst0"/><path id="dgXMLID_35_" d="M35.4 13c0 2.4-.2 4.1-.6 5.7 0 .1 0 .2.1.2h1.3c.4-2.2.5-4 .5-5.3h1.8v4h-1.3c-.1 0-.1 0-.1.1l.4 1.2h2.3V3.8h-4.4V13zm1.3-.6V9.3h1.8v3.1h-1.8zm1.8-7.3v3.1h-1.8V5.1h1.8z" class="dgst0"/><path id="dgXMLID_32_" d="M47.8 9h1.7V7.9h-5.1c.2-.4.3-.8.4-1.2h4.3V5.5h-1.3c.2-.7.5-1.6.5-1.6 0-.1 0-.1-.1-.1h-1.1l-.5 1.7H45c.1-.7.3-1.4.4-2.3 0-.1 0-.1-.1-.1H44c0 .9-.1 1.7-.3 2.4H43l-.5-1.7h-1.1c-.1 0-.1 0-.1.1 0 0 .3.9.5 1.6h-1.2v1.2h2.9c-.1.4-.3.8-.5 1.2h-2.7V9h2.1c-.8 1.2-1.7 1.7-2.1 1.9v1.3c0 .1.1.1.3 0 .4-.2.8-.5 1.2-.8h4.8v1.7h-3.8l.1-1s0-.1-.1-.1h-1.2l-.1 2.2s0 .1.1.1h6.6v3.2h-3c-.1 0-.1 0-.1.1l.4 1.2h4.1v-5.6H48l.1-2.3c.6.6 1.2 1 1.8 1.3.2.1.3 0 .3 0v-1.3c-.7-.2-1.6-.7-2.4-1.9zm-1.6 0c.3.5.6 1 1 1.3H43c.3-.4.6-.8.9-1.3h2.3z" class="dgst0"/><path id="dgXMLID_31_" d="M57 14.5l-2.4 1.8V7.9h-3.3v1.4h1.9v8.1c-.5.3-.8.6-.8.6l.8 1 3.9-3v-1.5c0-.1-.1-.1-.1 0z" class="dgst0"/><path id="dgXMLID_30_" d="M53.4 6.6H55v-.1l-2-3h-1.6c-.1 0-.1.1-.1.1.1 0 2.1 3 2.1 3z" class="dgst0"/><path id="dgXMLID_29_" d="M69.3 4.1h11.3v1.4H69.3z" class="dgst0"/><path id="dgXMLID_28_" d="M73.4 10.9h8.8V9.5H67.7v1.4h4c-.8 2.2-2.9 7.6-2.9 7.7 0 .1 0 .1.1.1h12.4c.1 0 .1-.1.1-.1l-1.9-4.9H78l-.1.1c0 .1 1.3 3.5 1.3 3.5H71l2.4-6.4z" class="dgst0"/></g></g></svg><svg id="marketing-y" width="18" height="18" x="176" y="126" viewBox="-1 -1 18 18"><style>.dhst0{fill:#ffb800}</style><path d="M9 5c1.1 0 2 .9 2 2v3h-1V7c0-.6-.4-1-1-1H6v8h3c3.3 0 6-2.7 6-6s-2.7-6-6-6H2v13H1V1h8c3.9 0 7 3.1 7 7s-3.1 7-7 7H5V5h4z" class="dhst0"/></svg><svg id="marketing-y-#FFFFFF" width="18" height="18" x="176" y="144" viewBox="-1 -1 18 18"><style>.dist0{fill:#fff}</style><path d="M9 5c1.1 0 2 .9 2 2v3h-1V7c0-.6-.4-1-1-1H6v8h3c3.3 0 6-2.7 6-6s-2.7-6-6-6H2v13H1V1h8c3.9 0 7 3.1 7 7s-3.1 7-7 7H5V5h4z" class="dist0"/></svg><svg id="menu-fold" width="18" height="18" y="172" viewBox="-1 -1 18 18"><path fill="#BBB" d="M7.9 4.5l-.7-.7-3.5 3.5L3 8l.7.7 3.5 3.5.7-.7L4.4 8l3.5-3.5zm4 0l-.7-.7L7 8l4.2 4.2.7-.7L8.4 8l3.5-3.5z"/></svg><svg id="menu-fold-hidden" width="18" height="18" x="18" y="172" viewBox="-1 -1 18 18"><path fill="#BBB" d="M7 11.5l.7.7 3.5-3.5.7-.7-.7-.7-3.5-3.5-.7.7L10.5 8 7 11.5zm-4 0l.7.7L7.9 8 3.7 3.8l-.7.7L6.5 8 3 11.5z"/></svg><svg id="menu-fold-new" width="18" height="18" x="36" y="172" viewBox="-1 -1 18 18"><style>.dlst5{fill:#888}</style><path d="M1 2h14v2H1zm0 5h7v2H1zm0 5h14v2H1zm14-1V5L9.8 8z" class="dlst5"/></svg><svg id="menu-fold-new-2" width="18" height="18" x="54" y="172" viewBox="-1 -1 18 18"><path fill="#888" d="M1 12h14v2H1zm7-5h7v2H8zM1 2h14v2H1zm0 3v6l5.2-3z"/></svg><svg id="mongodb-y" width="18" height="18" x="72" y="172" viewBox="-42 42 18 18"><style>.dnst0{fill:#ffb800}</style><path d="M-25.1 54c-.7-4.6-4.4-6-4.4-6s-3.7 1.4-4.4 6c-.5 3.2 2.9 3.9 3.9 4v1h1v-1c1-.2 4.4-.8 3.9-4zm-4.9 3c-1-.1-2-.4-2.6-1.1-.4-.4-.5-1-.4-1.7.4-2.7 1.9-4.1 2.9-4.7V57zm3.6-1.1c-.6.7-1.6 1-2.6 1.1v-7.6c1 .7 2.5 2.1 2.9 4.7.2.8 0 1.4-.3 1.8zm-8.2-5.9c.2-.4.4-.7.7-1h-.1c-3.3 0-6-1.1-6-2.5s2.7-2.5 6-2.5 6 1.1 6 2.5c.3.2.6.4 1 .6v-.7c0-1.9-3.1-3.5-7-3.5s-7 1.6-7 3.5v8c0 1.8 2.8 3.3 6.3 3.5l-.1-.1c-.2-.2-.4-.6-.6-.9-2.6-.3-4.6-1.3-4.6-2.4v-2.2c.9.8 2.4 1.3 4.1 1.6v-.2c0-.3.1-.5.2-.8-2.5-.3-4.3-1.3-4.3-2.4v-2.2c1.1.9 3.1 1.6 5.4 1.7z" class="dnst0"/></svg><svg id="mongodb-y-#FFFFFF" width="18" height="18" x="90" y="172" viewBox="-42 42 18 18"><style>.dost0{fill:#fff}</style><path d="M-25.1 54c-.7-4.6-4.4-6-4.4-6s-3.7 1.4-4.4 6c-.5 3.2 2.9 3.9 3.9 4v1h1v-1c1-.2 4.4-.8 3.9-4zm-4.9 3c-1-.1-2-.4-2.6-1.1-.4-.4-.5-1-.4-1.7.4-2.7 1.9-4.1 2.9-4.7V57zm3.6-1.1c-.6.7-1.6 1-2.6 1.1v-7.6c1 .7 2.5 2.1 2.9 4.7.2.8 0 1.4-.3 1.8zm-8.2-5.9c.2-.4.4-.7.7-1h-.1c-3.3 0-6-1.1-6-2.5s2.7-2.5 6-2.5 6 1.1 6 2.5c.3.2.6.4 1 .6v-.7c0-1.9-3.1-3.5-7-3.5s-7 1.6-7 3.5v8c0 1.8 2.8 3.3 6.3 3.5l-.1-.1c-.2-.2-.4-.6-.6-.9-2.6-.3-4.6-1.3-4.6-2.4v-2.2c.9.8 2.4 1.3 4.1 1.6v-.2c0-.3.1-.5.2-.8-2.5-.3-4.3-1.3-4.3-2.4v-2.2c1.1.9 3.1 1.6 5.4 1.7z" class="dost0"/></svg><svg id="monitoring-y" width="18" height="18" x="108" y="172" viewBox="-42 42 18 18"><style>.dpst0{fill:#ffb800}</style><path d="M-40 51c0-2.6 1.3-4.8 3.3-6.1l-.5-.9c-2.3 1.4-3.8 4-3.8 6.9 0 3 1.5 5.5 3.8 7l.5-.9c-2-1.2-3.3-3.4-3.3-6zm11.2-7l-.5.9c2 1.3 3.4 3.5 3.4 6.1 0 2.6-1.3 4.8-3.3 6.1l.5.9c2.3-1.4 3.8-4 3.8-6.9-.1-3.1-1.6-5.6-3.9-7.1zm-1.2 2.9l-.8-.6L-33 50c-.6 0-1 .5-1 1s.4 1 1 1 1-.5 1-1c0-.2-.1-.3-.1-.5l1.6-2.7c.9.7 1.5 1.9 1.5 3.2 0 2.3-1.8 4.1-4 4.1s-4-1.8-4-4.1c0-1.5.8-2.7 1.9-3.5l-.5-.9c-1.4.9-2.4 2.5-2.4 4.3 0 2.8 2.2 5.1 5 5.1s5-2.3 5-5.1c0-1.6-.8-3-2-4z" class="dpst0"/></svg><svg id="monitoring-y-#FFFFFF" width="18" height="18" x="126" y="172" viewBox="-42 42 18 18"><style>.dqst0{fill:#fff}</style><path d="M-40 51c0-2.6 1.3-4.8 3.3-6.1l-.5-.9c-2.3 1.4-3.8 4-3.8 6.9 0 3 1.5 5.5 3.8 7l.5-.9c-2-1.2-3.3-3.4-3.3-6zm11.2-7l-.5.9c2 1.3 3.4 3.5 3.4 6.1 0 2.6-1.3 4.8-3.3 6.1l.5.9c2.3-1.4 3.8-4 3.8-6.9-.1-3.1-1.6-5.6-3.9-7.1zm-1.2 2.9l-.8-.6L-33 50c-.6 0-1 .5-1 1s.4 1 1 1 1-.5 1-1c0-.2-.1-.3-.1-.5l1.6-2.7c.9.7 1.5 1.9 1.5 3.2 0 2.3-1.8 4.1-4 4.1s-4-1.8-4-4.1c0-1.5.8-2.7 1.9-3.5l-.5-.9c-1.4.9-2.4 2.5-2.4 4.3 0 2.8 2.2 5.1 5 5.1s5-2.3 5-5.1c0-1.6-.8-3-2-4z" class="dqst0"/></svg><svg id="permission-y" width="18" height="18" x="144" y="172" viewBox="-42 42 18 18"><style>.drst0{fill-rule:evenodd;clip-rule:evenodd;fill:#ffb800}</style><path d="M-28.8 44.2l-.5.9c2 1.2 3.4 3.4 3.4 6 0 2.5-1.3 4.7-3.3 5.9l.5.8c2.3-1.4 3.8-3.9 3.8-6.8-.1-2.9-1.6-5.4-3.9-6.8zM-33 51c1.1 0 2-.9 2-2s-.9-2-2-2-2 .9-2 2 .9 2 2 2zm0-3c.6 0 1 .4 1 1s-.4 1-1 1-1-.4-1-1 .4-1 1-1zm-7 3c0-2.5 1.3-4.7 3.3-5.9l-.5-.8c-2.3 1.4-3.8 3.9-3.8 6.8s1.5 5.4 3.8 6.8l.5-.9c-2-1.3-3.3-3.5-3.3-6zm11 4v-1c0-1.1-.9-2-2-2h-4c-1.1 0-2 .9-2 2v1h1v-1c0-.5.4-1 1-1h4c.5 0 1 .4 1 1v1h1z" class="drst0"/></svg><svg id="permission-y-#FFFFFF" width="18" height="18" x="162" y="172" viewBox="-42 42 18 18"><style>.dsst0{fill-rule:evenodd;clip-rule:evenodd;fill:#fff}</style><path d="M-28.8 44.2l-.5.9c2 1.2 3.4 3.4 3.4 6 0 2.5-1.3 4.7-3.3 5.9l.5.8c2.3-1.4 3.8-3.9 3.8-6.8-.1-2.9-1.6-5.4-3.9-6.8zM-33 51c1.1 0 2-.9 2-2s-.9-2-2-2-2 .9-2 2 .9 2 2 2zm0-3c.6 0 1 .4 1 1s-.4 1-1 1-1-.4-1-1 .4-1 1-1zm-7 3c0-2.5 1.3-4.7 3.3-5.9l-.5-.8c-2.3 1.4-3.8 3.9-3.8 6.8s1.5 5.4 3.8 6.8l.5-.9c-2-1.3-3.3-3.5-3.3-6zm11 4v-1c0-1.1-.9-2-2-2h-4c-1.1 0-2 .9-2 2v1h1v-1c0-.5.4-1 1-1h4c.5 0 1 .4 1 1v1h1z" class="dsst0"/></svg><svg id="physics-y" width="18" height="18" x="194" viewBox="-42 42 18 18"><style>.dtst0{fill:#ffb800}</style><path d="M-30 52.6v1.1l4-2.2v-1.1l-1 .5-3 1.7zm-3.5-9.6l-7.5 4v8l7.5 4 7.5-4v-1.1l-1 .5-6.5 3.5-6.5-3.5v-6.8l6.5-3.5 6.5 3.5-6 3.2v1.1l7-3.7V47l-7.5-4z" class="dtst0"/></svg><svg id="physics-y-#FFFFFF" width="18" height="18" x="194" y="18" viewBox="-42 42 18 18"><style>.dust0{fill:#fff}</style><path d="M-30 52.6v1.1l4-2.2v-1.1l-1 .5-3 1.7zm-3.5-9.6l-7.5 4v8l7.5 4 7.5-4v-1.1l-1 .5-6.5 3.5-6.5-3.5v-6.8l6.5-3.5 6.5 3.5-6 3.2v1.1l7-3.7V47l-7.5-4z" class="dust0"/></svg><svg id="pigeonhole" width="18" height="18" x="194" y="36" viewBox="-1 -1 18 18"><style>.dvst0{fill-rule:evenodd;clip-rule:evenodd;fill:#fff}</style><g id="dvXMLID_227_"><g id="dvXMLID_33_"><path id="dvXMLID_34_" d="M15 6V4.1L8.2.2 1.3 4.1v4.6l2-1.1 4.9-2.8L10.4 6 4.7 9.3l-.5.3.6.5H5l.1.1 3.1 1.9L14 8.7v2.8l-5.8 3.4-5.9-3.4V9.1l-1 .6V12l6.9 4 6.8-3.9V7l-1 .5v.1l-5.8 3.3-2.1-1.2 5.3-3.2.9-.5-.9-.5-3-1.8-.2-.1L2.3 7V4.7l5.9-3.4L14 4.7v1.9z" class="dvst0"/></g></g></svg><svg id="pigeonhole-y" width="18" height="18" x="194" y="54" viewBox="-8 8 18 18"><style>.dwst0{fill:#ffb800}</style><path id="dw图层_1" d="M1 13.8l2.6 1.3-6.9 4.2L1 21.7l6-3.6v2.5l-6 3.2-6-3.2v-2.2l-1 .6v2.2L1 25l7-3.9v-4.8l-7 4.2-2.3-1.3 6.9-4.1L1 12.7l-6 3.4v-2.4l6-3.5 6 3.4v2.2l1-.6v-2.1L1 9l-7 4.1v4.8z" class="dwst0"/></svg><svg id="plaint-icon-#fff" width="18" height="18" x="194" y="72" viewBox="-1 -1 18 18"><g fill="#fff"><path d="M7 4h1v2H7zm1 0h1v2H8zM7 7h1v5H7zm1 0h1v5H8z"/><path d="M8 2c3.308 0 6 2.692 6 6s-2.692 6-6 6-6-2.692-6-6 2.692-6 6-6m0-1a7 7 0 1 0 0 14A7 7 0 0 0 8 1z"/></g></svg><svg id="private-y" width="18" height="18" x="194" y="90" viewBox="-42 42 18 18"><style>.dyst0{fill-rule:evenodd;clip-rule:evenodd;fill:#ffb800}</style><path d="M-34 53.9V57h1v-3.1c.6-.2 1-.8 1-1.4 0-.8-.7-1.5-1.5-1.5s-1.5.7-1.5 1.5c0 .7.4 1.2 1 1.4zm5-4.9v-2c-.3-2.2-2.2-4-4.5-4s-4.2 1.8-4.5 4v2h-2v10h13V49h-2zm-8-1.5c0-1.9 1.6-3.5 3.5-3.5s3.5 1.6 3.5 3.5V49h-7v-1.5zm9 10.5h-11v-8h11v8z" class="dyst0"/></svg><svg id="private-y-#FFFFFF" width="18" height="18" x="194" y="108" viewBox="-42 42 18 18"><style>.dzst0{fill-rule:evenodd;clip-rule:evenodd;fill:#fff}</style><path d="M-34 53.9V57h1v-3.1c.6-.2 1-.8 1-1.4 0-.8-.7-1.5-1.5-1.5s-1.5.7-1.5 1.5c0 .7.4 1.2 1 1.4zm5-4.9v-2c-.3-2.2-2.2-4-4.5-4s-4.2 1.8-4.5 4v2h-2v10h13V49h-2zm-8-1.5c0-1.9 1.6-3.5 3.5-3.5s3.5 1.6 3.5 3.5V49h-7v-1.5zm9 10.5h-11v-8h11v8z" class="dzst0"/></svg><svg id="proof-y" width="18" height="18" x="194" y="126" viewBox="-42 42 18 18"><style>.east0{fill-rule:evenodd;clip-rule:evenodd;fill:#ffb800}</style><path d="M-40 51c0-2.5 1.3-4.7 3.3-5.9l-.5-.8c-2.3 1.4-3.8 3.9-3.8 6.8s1.5 5.4 3.8 6.8l.5-.9c-2-1.3-3.3-3.5-3.3-6zm11.2-6.8l-.5.9c2 1.2 3.4 3.4 3.4 6 0 2.5-1.3 4.7-3.3 5.9l.5.8c2.3-1.4 3.8-3.9 3.8-6.8-.1-2.9-1.6-5.4-3.9-6.8zM-33 47c.8 0 1.5.2 2.1.6l.5-.9c-.8-.4-1.6-.7-2.6-.7s-1.9.3-2.6.8l.5.8c.6-.4 1.3-.6 2.1-.6zm0 8c-.8 0-1.5-.2-2.1-.6l-.5.9c.8.4 1.6.7 2.6.7s1.9-.3 2.6-.8l-.5-.8c-.6.4-1.3.6-2.1.6zm-2-2v-4h-3v4h1v-1h1v1h1zm-2-2v-1h1v1h-1zm3 2h1v-1h2v-3h-3v4zm1-3h1v1h-1v-1zm4-1h-1v4h1v-4z" class="east0"/></svg><svg id="proof-y-#FFFFFF" width="18" height="18" x="194" y="144" viewBox="-42 42 18 18"><style>.ebst0{fill-rule:evenodd;clip-rule:evenodd;fill:#fff}</style><path d="M-40 51c0-2.5 1.3-4.7 3.3-5.9l-.5-.8c-2.3 1.4-3.8 3.9-3.8 6.8s1.5 5.4 3.8 6.8l.5-.9c-2-1.3-3.3-3.5-3.3-6zm11.2-6.8l-.5.9c2 1.2 3.4 3.4 3.4 6 0 2.5-1.3 4.7-3.3 5.9l.5.8c2.3-1.4 3.8-3.9 3.8-6.8-.1-2.9-1.6-5.4-3.9-6.8zM-33 47c.8 0 1.5.2 2.1.6l.5-.9c-.8-.4-1.6-.7-2.6-.7s-1.9.3-2.6.8l.5.8c.6-.4 1.3-.6 2.1-.6zm0 8c-.8 0-1.5-.2-2.1-.6l-.5.9c.8.4 1.6.7 2.6.7s1.9-.3 2.6-.8l-.5-.8c-.6.4-1.3.6-2.1.6zm-2-2v-4h-3v4h1v-1h1v1h1zm-2-2v-1h1v1h-1zm3 2h1v-1h2v-3h-3v4zm1-3h1v1h-1v-1zm4-1h-1v4h1v-4z" class="ebst0"/></svg><svg id="qlog-y" width="18" height="18" x="194" y="162" viewBox="-42 42 18 18"><style>.ecst0{fill:#ffb800}</style><path d="M-33 44c-4.4 0-8 3.1-8 7 0 1.8.7 3.4 2 4.6l-1 3.4 3.5-1.7c1.1.5 2.3.7 3.5.7 4.4 0 8-3.1 8-7s-3.6-7-8-7zm0 13c-1.3 0-2.5-.3-3.6-.8l-1.9.9.5-1.8c-1.3-1.1-2.1-2.6-2.1-4.3 0-3.3 3.1-6 7-6s7 2.7 7 6c.1 3.3-3 6-6.9 6zm-3-7c-.6 0-1 .4-1 1s.4 1 1 1 1-.4 1-1-.4-1-1-1zm6 0c-.6 0-1 .4-1 1s.4 1 1 1 1-.4 1-1-.4-1-1-1zm-3 0c-.6 0-1 .4-1 1s.4 1 1 1 1-.4 1-1-.4-1-1-1z" class="ecst0"/></svg><svg id="qlog-y-#FFFFFF" width="18" height="18" y="190" viewBox="-42 42 18 18"><style>.edst0{fill:#fff}</style><path d="M-33 44c-4.4 0-8 3.1-8 7 0 1.8.7 3.4 2 4.6l-1 3.4 3.5-1.7c1.1.5 2.3.7 3.5.7 4.4 0 8-3.1 8-7s-3.6-7-8-7zm0 13c-1.3 0-2.5-.3-3.6-.8l-1.9.9.5-1.8c-1.3-1.1-2.1-2.6-2.1-4.3 0-3.3 3.1-6 7-6s7 2.7 7 6c.1 3.3-3 6-6.9 6zm-3-7c-.6 0-1 .4-1 1s.4 1 1 1 1-.4 1-1-.4-1-1-1zm6 0c-.6 0-1 .4-1 1s.4 1 1 1 1-.4 1-1-.4-1-1-1zm-3 0c-.6 0-1 .4-1 1s.4 1 1 1 1-.4 1-1-.4-1-1-1z" class="edst0"/></svg><svg id="redis-y" width="18" height="18" x="18" y="190" viewBox="-42 42 18 18"><style>.eest0{fill:#ffb800}</style><path d="M-35 55.4l-1-.5V56l5.5 3 5.5-3v-1.1l-5.5 3-4.5-2.5zm0-2.6l-1-.5v1.1l5.5 3 5.5-3v-1.1l-5.5 3-4.5-2.5zm4.5-5.8l-5.5 3v1.1l5.5 3 5.5-3V50l-5.5-3zm0 6l-4.5-2.4 4.5-2.4 4.5 2.4-4.5 2.4zm-9.5-6.5c0-1.4 2.7-2.5 6-2.5s6 1.1 6 2.5c0 .2 0 .3-.1.5h1.1v-.5c0-1.9-3.1-3.5-7-3.5s-7 1.6-7 3.5v8c0 1.4 1.6 2.6 4 3.2v-1c-1.8-.4-3-1.2-3-2.2v-2.2c.7.6 1.8 1.1 3 1.4v-1c-1.8-.4-3-1.2-3-2.2v-2.2c.7.6 1.8 1.1 3 1.4v-1c-1.8-.5-3-1.3-3-2.2z" class="eest0"/></svg><svg id="redis-y-#FFFFFF" width="18" height="18" x="36" y="190" viewBox="-42 42 18 18"><style>.efst0{fill:#fff}</style><path d="M-35 55.4l-1-.5V56l5.5 3 5.5-3v-1.1l-5.5 3-4.5-2.5zm0-2.6l-1-.5v1.1l5.5 3 5.5-3v-1.1l-5.5 3-4.5-2.5zm4.5-5.8l-5.5 3v1.1l5.5 3 5.5-3V50l-5.5-3zm0 6l-4.5-2.4 4.5-2.4 4.5 2.4-4.5 2.4zm-9.5-6.5c0-1.4 2.7-2.5 6-2.5s6 1.1 6 2.5c0 .2 0 .3-.1.5h1.1v-.5c0-1.9-3.1-3.5-7-3.5s-7 1.6-7 3.5v8c0 1.4 1.6 2.6 4 3.2v-1c-1.8-.4-3-1.2-3-2.2v-2.2c.7.6 1.8 1.1 3 1.4v-1c-1.8-.4-3-1.2-3-2.2v-2.2c.7.6 1.8 1.1 3 1.4v-1c-1.8-.5-3-1.3-3-2.2z" class="efst0"/></svg><svg id="safety-y" width="18" height="18" x="54" y="190" viewBox="-1 -1 18 18"><style>.egst4{fill-rule:evenodd;clip-rule:evenodd;fill:#ffb800}</style><path d="M13.6 5H11V4c0-.8 0-4-3.4-4C4.5 0 4 2.3 4 4v1H1.4C.6 5 0 5.6 0 6.4v8.2c0 .8.6 1.4 1.4 1.4h12.2c.8 0 1.4-.6 1.4-1.4V6.4c0-.8-.6-1.4-1.4-1.4zM5 3.6C5 2.9 5.2 1 7.5 1 9.2 1 10 2.3 10 3.6V5H5V3.6zM14 14c0 .6-.4 1-1 1H2c-.6 0-1-.4-1-1V7c0-.6.4-1 1-1h11c.6 0 1 .4 1 1v7zm-4.3-1.1L9 9.3C8.9 8.6 8.2 8 7.5 8 6.7 8 6 8.7 6 9.5v.2l-.7 3.2h.1l-.1.1h4.5l-.1-.1zm-1-.9H6.3l.1-.5.5-2.1H7c0-.2.2-.4.5-.4.2 0 .4.2.5.4l.3 1.3.4 1.3z" class="egst4"/></svg><svg id="safety-y-#FFFFFF" width="18" height="18" x="72" y="190" viewBox="-1 -1 18 18"><style>.ehst4{fill-rule:evenodd;clip-rule:evenodd;fill:#fff}</style><path d="M13.6 5H11V4c0-.8 0-4-3.4-4C4.5 0 4 2.3 4 4v1H1.4C.6 5 0 5.6 0 6.4v8.2c0 .8.6 1.4 1.4 1.4h12.2c.8 0 1.4-.6 1.4-1.4V6.4c0-.8-.6-1.4-1.4-1.4zM5 3.6C5 2.9 5.2 1 7.5 1 9.2 1 10 2.3 10 3.6V5H5V3.6zM14 14c0 .6-.4 1-1 1H2c-.6 0-1-.4-1-1V7c0-.6.4-1 1-1h11c.6 0 1 .4 1 1v7zm-4.3-1.1L9 9.3C8.9 8.6 8.2 8 7.5 8 6.7 8 6 8.7 6 9.5v.2l-.7 3.2h.1l-.1.1h4.5l-.1-.1zm-1-.9H6.3l.1-.5.5-2.1H7c0-.2.2-.4.5-.4.2 0 .4.2.5.4l.3 1.3.4 1.3z" class="ehst4"/></svg><svg id="safetyprotection-y" width="18" height="18" x="90" y="190" viewBox="-42 42 18 18"><style>.eist0{fill:#ffb800}</style><path d="M-29 44h3v-1h-15v7s0 8 7.5 9c7.5-1 7.5-9 7.5-9v-4h-1v4c0 .1 0 .5-.1 1.2l-7.2-7.2h5.3zm-11 6v-.3l7.9 7.9c-.4.1-.9.3-1.4.4-6.4-.9-6.5-7.7-6.5-8zm8.9 7.2l-8.9-8.9v-3.6l10.9 10.9c-.5.7-1.1 1.2-2 1.6zm3.7-4.8c-.2.8-.6 1.7-1.1 2.5L-39.3 44h3.6l8.3 8.4z" class="eist0"/></svg><svg id="safetyprotection-y-#FFFFFF" width="18" height="18" x="108" y="190" viewBox="-42 42 18 18"><style>.ejst0{fill:#fff}</style><path d="M-29 44h3v-1h-15v7s0 8 7.5 9c7.5-1 7.5-9 7.5-9v-4h-1v4c0 .1 0 .5-.1 1.2l-7.2-7.2h5.3zm-11 6v-.3l7.9 7.9c-.4.1-.9.3-1.4.4-6.4-.9-6.5-7.7-6.5-8zm8.9 7.2l-8.9-8.9v-3.6l10.9 10.9c-.5.7-1.1 1.2-2 1.6zm3.7-4.8c-.2.8-.6 1.7-1.1 2.5L-39.3 44h3.6l8.3 8.4z" class="ejst0"/></svg><svg id="security-y" width="18" height="18" x="126" y="190" viewBox="-42 42 18 18"><style>.ekst0{fill:#ffb800}</style><path d="M-33.5 46c-1.4 0-2.5 1.1-2.5 2.5v.5h-1v5h7v-5h-1v-.5c0-1.4-1.1-2.5-2.5-2.5zm-1.5 2.5c0-.8.7-1.5 1.5-1.5s1.5.7 1.5 1.5v.5h-3v-.5zm4 4.5h-5v-3h5v3zm5-10h-15v7s0 8 7.5 9c7.5-1 7.5-9 7.5-9v-4h-1v4c0 .3-.1 7.1-6.5 8-6.4-.9-6.5-7.7-6.5-8v-6h14v-1z" class="ekst0"/></svg><svg id="security-y-#FFFFFF" width="18" height="18" x="144" y="190" viewBox="-42 42 18 18"><style>.elst0{fill:#fff}</style><path d="M-33.5 46c-1.4 0-2.5 1.1-2.5 2.5v.5h-1v5h7v-5h-1v-.5c0-1.4-1.1-2.5-2.5-2.5zm-1.5 2.5c0-.8.7-1.5 1.5-1.5s1.5.7 1.5 1.5v.5h-3v-.5zm4 4.5h-5v-3h5v3zm5-10h-15v7s0 8 7.5 9c7.5-1 7.5-9 7.5-9v-4h-1v4c0 .3-.1 7.1-6.5 8-6.4-.9-6.5-7.7-6.5-8v-6h14v-1z" class="elst0"/></svg><svg id="server-y" width="18" height="18" x="162" y="190" viewBox="-42 42 18 18"><style>.emst0{fill:#ffb800}</style><path d="M-26 47l-7.5-4-7.5 4v7l4.2 2.3c.1-.3.3-.6.5-.9l-3.7-2v-4.7l6.5 3.5 6.5-3.5v4.7l-5.5 3c-.3-.2-.6-.4-1-.4-.8 0-1.5.7-1.5 1.5s.7 1.5 1.5 1.5 1.5-.7 1.5-1.5v-.3l6-3.2v-7zm-7.5 4.1l-6.5-3.5 6.5-3.5 6.5 3.5-6.5 3.5z" class="emst0"/></svg><svg id="server-y-#FFFFFF" width="18" height="18" x="180" y="190" viewBox="-42 42 18 18"><style>.enst0{fill:#fff}</style><path d="M-26 47l-7.5-4-7.5 4v7l4.2 2.3c.1-.3.3-.6.5-.9l-3.7-2v-4.7l6.5 3.5 6.5-3.5v4.7l-5.5 3c-.3-.2-.6-.4-1-.4-.8 0-1.5.7-1.5 1.5s.7 1.5 1.5 1.5 1.5-.7 1.5-1.5v-.3l6-3.2v-7zm-7.5 4.1l-6.5-3.5 6.5-3.5 6.5 3.5-6.5 3.5z" class="enst0"/></svg><svg id="service-help" width="20" height="18" x="44" y="24" viewBox="-1 -1 20 18"><path fill="#FFF" d="M16 6h-1A6 6 0 0 0 3 6H2a2 2 0 0 0-2 2v2a2 2 0 0 0 2 2h1a4 4 0 0 0 4 4h4v-2.999H7v1c-1.103 0-2-.898-2-2V6c0-2.205 1.794-4 4-4s4 1.794 4 4v6h3a2 2 0 0 0 2-2V8a2 2 0 0 0-2-2zM2 10V8h1v2H2zm14 0h-1V8h1v2z"/></svg><svg id="sms-y" width="18" height="18" x="212" y="18" viewBox="-42 42 18 18"><style>.epst0{fill:#ffb800}</style><path d="M-41 45v12h16V45h-16zm14 1l-6 4.7-6-4.7h12zm-13 10v-9.5l7 5.5 7-5.5V56h-14z" class="epst0"/></svg><svg id="sms-y-#FFFFFF" width="18" height="18" x="212" y="36" viewBox="-42 42 18 18"><style>.eqst0{fill:#fff}</style><path d="M-41 45v12h16V45h-16zm14 1l-6 4.7-6-4.7h12zm-13 10v-9.5l7 5.5 7-5.5V56h-14z" class="eqst0"/></svg><svg id="sql-y" width="18" height="18" x="212" y="54" viewBox="-42 42 18 18"><style>.erst0{fill:#ffb800}</style><path d="M-25 52h-4v-4l-5 7h4v4l5-7zm-7.1 2l2.1-2.9V53h3.1l-2.1 2.9V54h-3.1zm-1.9 3c-3.3 0-6-1.1-6-2.5v-2.2c1 .8 2.6 1.4 4.5 1.6l.7-.9c-2.9-.2-5.1-1.2-5.1-2.5v-2.2c1.2 1 3.4 1.7 6 1.7.4 0 .8 0 1.2-.1l.8-1.1c-.6.1-1.3.1-2 .1-3.3 0-6-1.1-6-2.5s2.7-2.5 6-2.5c2.9 0 5.3.9 5.9 2h.1v5h1v-4.5c0-1.9-3.1-3.5-7-3.5s-7 1.6-7 3.5v8c0 1.9 3.1 3.5 7 3.5 1.1 0 2.1-.1 3-.4v-1c-1 .4-2 .5-3.1.5z" class="erst0"/></svg><svg id="sql-y-#FFFFFF" width="18" height="18" x="212" y="72" viewBox="-42 42 18 18"><style>.esst0{fill:#fff}</style><path d="M-25 52h-4v-4l-5 7h4v4l5-7zm-7.1 2l2.1-2.9V53h3.1l-2.1 2.9V54h-3.1zm-1.9 3c-3.3 0-6-1.1-6-2.5v-2.2c1 .8 2.6 1.4 4.5 1.6l.7-.9c-2.9-.2-5.1-1.2-5.1-2.5v-2.2c1.2 1 3.4 1.7 6 1.7.4 0 .8 0 1.2-.1l.8-1.1c-.6.1-1.3.1-2 .1-3.3 0-6-1.1-6-2.5s2.7-2.5 6-2.5c2.9 0 5.3.9 5.9 2h.1v5h1v-4.5c0-1.9-3.1-3.5-7-3.5s-7 1.6-7 3.5v8c0 1.9 3.1 3.5 7 3.5 1.1 0 2.1-.1 3-.4v-1c-1 .4-2 .5-3.1.5z" class="esst0"/></svg><svg id="ssl-y" width="18" height="18" x="212" y="90" viewBox="-42 42 18 18"><style>.etst0{fill-rule:evenodd;clip-rule:evenodd;fill:#ffb800}</style><path d="M-25 54V44h-16v13h16v-1h-15v-8h14v6h1zm-15-7v-2h14v2h-14zm10 8v-6h-6v6h1v-1h1v-1h-1v-3h4v3h-1v1h1v1h1zm-4-3v1h2v-1h-2z" class="etst0"/></svg><svg id="ssl-y-#FFFFFF" width="18" height="18" x="212" y="108" viewBox="-42 42 18 18"><style>.eust0{fill-rule:evenodd;clip-rule:evenodd;fill:#fff}</style><path d="M-25 54V44h-16v13h16v-1h-15v-8h14v6h1zm-15-7v-2h14v2h-14zm10 8v-6h-6v6h1v-1h1v-1h-1v-3h4v3h-1v1h1v1h1zm-4-3v1h2v-1h-2z" class="eust0"/></svg><svg id="storage-y" width="18" height="18" x="212" y="126" viewBox="-42 42 18 18"><style>.evst0{fill:#ffb800}</style><path d="M-33.5 43l-7.5 4v8l7.5 4 7.5-4v-7.1l-1 .5v5.9l-6 3.2v-5.7l5.1-2.7 1.9-1V47l-7.5-4zm-.5 14.6l-6-3.2v-5.7l6 3.2v5.7zm.5-6.5l-6.5-3.5 6.5-3.5 6.5 3.5-6.5 3.5z" class="evst0"/></svg><svg id="storage-y-#FFFFFF" width="18" height="18" x="212" y="144" viewBox="-42 42 18 18"><style>.ewst0{fill:#fff}</style><path d="M-33.5 43l-7.5 4v8l7.5 4 7.5-4v-7.1l-1 .5v5.9l-6 3.2v-5.7l5.1-2.7 1.9-1V47l-7.5-4zm-.5 14.6l-6-3.2v-5.7l6 3.2v5.7zm.5-6.5l-6.5-3.5 6.5-3.5 6.5 3.5-6.5 3.5z" class="ewst0"/></svg><svg id="tact-y" width="18" height="18" x="212" y="162" viewBox="-42 42 18 18"><style>.exst0{fill:#ffb800}</style><path d="M-28.2 45.2c-2.9-2.9-7.7-2.9-10.6 0-2.9 2.9-2.9 7.7 0 10.6.9.9 2 1.5 3.1 1.9l.8-.8L-31 53c1.4-1.4 1.4-3.6 0-4.9-1.4-1.4-3.6-1.4-4.9 0-1.4 1.4-1.4 3.6 0 4.9.1.1.4.3.4.3l.7-.7 2.1-2.1-.7-.7-2.1 2.1c-.6-1-.5-2.3.3-3.1 1-1 2.6-1 3.5 0 1 1 1 2.6 0 3.5l-4.2 4.2c-.8-.3-1.5-.8-2.1-1.4-2.5-2.5-2.5-6.7 0-9.2 2.5-2.5 6.7-2.5 9.2 0 2.5 2.5 2.5 6.7 0 9.2l-1.8 1.8.7.7 1.8-1.8c2.8-2.9 2.8-7.7-.1-10.6z" class="exst0"/></svg><svg id="tact-y-#FFFFFF" width="18" height="18" x="212" y="180" viewBox="-42 42 18 18"><style>.eyst0{fill:#fff}</style><path d="M-28.2 45.2c-2.9-2.9-7.7-2.9-10.6 0-2.9 2.9-2.9 7.7 0 10.6.9.9 2 1.5 3.1 1.9l.8-.8L-31 53c1.4-1.4 1.4-3.6 0-4.9-1.4-1.4-3.6-1.4-4.9 0-1.4 1.4-1.4 3.6 0 4.9.1.1.4.3.4.3l.7-.7 2.1-2.1-.7-.7-2.1 2.1c-.6-1-.5-2.3.3-3.1 1-1 2.6-1 3.5 0 1 1 1 2.6 0 3.5l-4.2 4.2c-.8-.3-1.5-.8-2.1-1.4-2.5-2.5-2.5-6.7 0-9.2 2.5-2.5 6.7-2.5 9.2 0 2.5 2.5 2.5 6.7 0 9.2l-1.8 1.8.7.7 1.8-1.8c2.8-2.9 2.8-7.7-.1-10.6z" class="eyst0"/></svg><svg id="tdf-y" width="18" height="18" y="208" viewBox="-1 -1 18 18"><style>.ezst0{fill:#ffb800}</style><path d="M0 16v-3h1v2h14v-2h1v3H0zm13-5h-1V6h4v1h-3v1h3v1h-3v2zm2-10H1v2H0V0h16v3h-1V1zM6 11V6h2.2c1 0 1.7.2 2.2.7.5.4.7 1 .7 1.8s-.2 1.4-.7 1.8c-.6.5-1.4.7-2.3.7H6zm4-2.5c0-.5-.1-.9-.4-1.1-.3-.3-.8-.4-1.5-.4H7v3h1.1c.6 0 1.1-.1 1.5-.4.2-.2.4-.6.4-1.1zM5 7H3v4H2V7H0V6h5v1z" class="ezst0"/></svg><svg id="tdf-y-#FFFFFF" width="18" height="18" x="18" y="208" viewBox="-1 -1 18 18"><style>.fast0{fill:#fff}</style><path d="M0 16v-3h1v2h14v-2h1v3H0zm13-5h-1V6h4v1h-3v1h3v1h-3v2zm2-10H1v2H0V0h16v3h-1V1zM6 11V6h2.2c1 0 1.7.2 2.2.7.5.4.7 1 .7 1.8s-.2 1.4-.7 1.8c-.6.5-1.4.7-2.3.7H6zm4-2.5c0-.5-.1-.9-.4-1.1-.3-.3-.8-.4-1.5-.4H7v3h1.1c.6 0 1.1-.1 1.5-.4.2-.2.4-.6.4-1.1zM5 7H3v4H2V7H0V6h5v1z" class="fast0"/></svg><svg id="test-y" width="18" height="18" x="36" y="208" viewBox="-42 42 18 18"><style>.fbst0{fill-rule:evenodd;clip-rule:evenodd;fill:#ffb800}</style><path d="M-33 50c-.6 0-1 .5-1 1 0 .6.4 1 1 1s1-.5 1-1c0-.6-.4-1-1-1zm-7 1c0-2.6 1.3-4.8 3.3-6.1l-.5-.9c-2.3 1.4-3.8 4-3.8 6.9 0 3 1.5 5.5 3.8 7l.5-.9c-2-1.2-3.3-3.4-3.3-6zm11.2-7l-.5.9c2 1.3 3.4 3.5 3.4 6.1 0 2.6-1.3 4.8-3.3 6.1l.5.9c2.3-1.4 3.8-4 3.8-6.9-.1-3.1-1.6-5.6-3.9-7.1zm-1.6 2.6l-.5.9c1.2.7 1.9 2 1.9 3.5s-.8 2.7-1.9 3.5l.5.9c1.4-.9 2.4-2.5 2.4-4.3 0-1.9-1-3.6-2.4-4.5zM-37 51c0-1.5.8-2.7 1.9-3.5l-.5-.9c-1.4.9-2.4 2.5-2.4 4.3 0 1.8 1 3.5 2.4 4.4l.5-.9c-1.1-.6-1.9-1.9-1.9-3.4z" class="fbst0"/></svg><svg id="test-y-#FFFFFF" width="18" height="18" x="54" y="208" viewBox="-42 42 18 18"><style>.fcst0{fill-rule:evenodd;clip-rule:evenodd;fill:#fff}</style><path d="M-33 50c-.6 0-1 .5-1 1 0 .6.4 1 1 1s1-.5 1-1c0-.6-.4-1-1-1zm-7 1c0-2.6 1.3-4.8 3.3-6.1l-.5-.9c-2.3 1.4-3.8 4-3.8 6.9 0 3 1.5 5.5 3.8 7l.5-.9c-2-1.2-3.3-3.4-3.3-6zm11.2-7l-.5.9c2 1.3 3.4 3.5 3.4 6.1 0 2.6-1.3 4.8-3.3 6.1l.5.9c2.3-1.4 3.8-4 3.8-6.9-.1-3.1-1.6-5.6-3.9-7.1zm-1.6 2.6l-.5.9c1.2.7 1.9 2 1.9 3.5s-.8 2.7-1.9 3.5l.5.9c1.4-.9 2.4-2.5 2.4-4.3 0-1.9-1-3.6-2.4-4.5zM-37 51c0-1.5.8-2.7 1.9-3.5l-.5-.9c-1.4.9-2.4 2.5-2.4 4.3 0 1.8 1 3.5 2.4 4.4l.5-.9c-1.1-.6-1.9-1.9-1.9-3.4z" class="fcst0"/></svg><svg id="tinyvideo-y" width="18" height="18" x="72" y="208" viewBox="-42 42 18 18"><style>.fdst0{fill:#ffb800}</style><path d="M-35.5 53l2.7-1.7c.2-.1.2-.4 0-.5l-2.7-1.7c-.2-.1-.5 0-.5.3v3.3c0 .2.3.4.5.3zm6.5-5v-3h-12v1h11v3.3l1.2-.3 2.8-.7v5.4l-2.8-.7-1.2-.3V56h-10v-8h-1v9h12v-3l4 1v-8l-4 1z" class="fdst0"/></svg><svg id="tinyvideo-y-#FFFFFF" width="18" height="18" x="90" y="208" viewBox="-42 42 18 18"><style>.fest0{fill:#fff}</style><path d="M-35.5 53l2.7-1.7c.2-.1.2-.4 0-.5l-2.7-1.7c-.2-.1-.5 0-.5.3v3.3c0 .2.3.4.5.3zm6.5-5v-3h-12v1h11v3.3l1.2-.3 2.8-.7v5.4l-2.8-.7-1.2-.3V56h-10v-8h-1v9h12v-3l4 1v-8l-4 1z" class="fest0"/></svg><svg id="tip-close" width="18" height="18" x="108" y="208" viewBox="-1 -1 18 18"><style>.ffst0{fill:#fff}</style><path d="M13.9 3.5l-1.4-1.4L8 6.6 3.5 2.1 2.1 3.5 6.6 8l-4.5 4.5 1.4 1.4L8 9.4l4.5 4.5 1.4-1.4L9.4 8z" class="ffst0"/></svg><svg id="translate-y" width="18" height="18" x="126" y="208" viewBox="-1 -1 18 18"><path fill="#F5B215" d="M11.5 2c-1.4 0-2.7.7-3.5 1.7l.6.9c.6-1 1.7-1.6 2.9-1.6C13.4 3 15 4.6 15 6.5S13.4 10 11.5 10c-1.2 0-2.3-.6-2.9-1.6l-.6.9c.8 1 2.1 1.7 3.5 1.7C14 11 16 9 16 6.5S14 2 11.5 2z"/><path fill="#F5B215" d="M4.5 3C6.4 3 8 4.6 8 6.5S6.4 10 4.5 10 1 8.4 1 6.5 2.6 3 4.5 3m0-1C2 2 0 4 0 6.5S2 11 4.5 11 9 9 9 6.5 7 2 4.5 2z"/><path fill="#F5B215" d="M10.9 10.3c0 .2.1.4.1.7 0 1.7-1.3 3-3 3s-3-1.3-3-3c0-.2 0-.4.1-.7h-1c-.1.3-.1.5-.1.7 0 2.2 1.8 4 4 4s4-1.8 4-4c0-.2 0-.4-.1-.7h-1z"/></svg><svg id="translate-y-#FFFFFF" width="18" height="18" x="144" y="208" viewBox="-1 -1 18 18"><path fill="#FFF" d="M11.5 2c-1.4 0-2.7.7-3.5 1.7l.6.9c.6-1 1.7-1.6 2.9-1.6C13.4 3 15 4.6 15 6.5S13.4 10 11.5 10c-1.2 0-2.3-.6-2.9-1.6l-.6.9c.8 1 2.1 1.7 3.5 1.7C14 11 16 9 16 6.5S14 2 11.5 2z"/><path fill="#FFF" d="M4.5 3C6.4 3 8 4.6 8 6.5S6.4 10 4.5 10 1 8.4 1 6.5 2.6 3 4.5 3m0-1C2 2 0 4 0 6.5S2 11 4.5 11 9 9 9 6.5 7 2 4.5 2z"/><path fill="#FFF" d="M10.9 10.3c0 .2.1.4.1.7 0 1.7-1.3 3-3 3s-3-1.3-3-3c0-.2 0-.4.1-.7h-1c-.1.3-.1.5-.1.7 0 2.2 1.8 4 4 4s4-1.8 4-4c0-.2 0-.4-.1-.7h-1z"/></svg><svg id="user-analyze-y" width="18" height="18" x="162" y="208" viewBox="-42 42 18 18"><style>.fist0{fill-rule:evenodd;clip-rule:evenodd;fill:#ffb800}</style><path d="M-28 46h-13v1h13v-1zm-4 10h7v-1h-7v1zm-6 0h5v-1h-5v1zm8-4h-10v1h10v-1zm1 1h4v-1h-4v1zm-6-4v1h10v-1h-10zm-1 0h-4v1h4v-1z" class="fist0"/></svg><svg id="user-analyze-y-#FFFFFF" width="18" height="18" x="180" y="208" viewBox="-42 42 18 18"><style>.fjst0{fill-rule:evenodd;clip-rule:evenodd;fill:#fff}</style><path d="M-28 46h-13v1h13v-1zm-4 10h7v-1h-7v1zm-6 0h5v-1h-5v1zm8-4h-10v1h10v-1zm1 1h4v-1h-4v1zm-6-4v1h10v-1h-10zm-1 0h-4v1h4v-1z" class="fjst0"/></svg><svg id="user-logs-btn" width="18" height="18" x="198" y="208" viewBox="-1 -1 18 18"><style>.fkst0{fill:#fff}</style><path d="M5 10c0-1.1-.9-2-2-2v.7l1 1L2.6 11l-1-1H1c0 1.1.9 2 2 2 .3 0 .6-.1.8-.2L7 15h.8l.2-.2v-.9l-3.2-3.1c.1-.2.2-.5.2-.8zM8.5 0C4.9 0 1.8 2.6 1.1 6h1c.7-2.9 3.2-5 6.3-5C12.1 1 15 3.9 15 7.5c0 3.1-2.1 5.6-5 6.3v1c3.4-.7 6-3.7 6-7.3C16 3.4 12.6 0 8.5 0zM13 7H9V2H8v6h5V7z" class="fkst0"/></svg><svg id="user-logs-btn-cur" width="18" height="18" x="230" viewBox="-1 -1 18 18"><style>.flst0{fill:#f5b317}</style><path d="M5 10c0-1.1-.9-2-2-2v.7l1 1L2.6 11l-1-1H1c0 1.1.9 2 2 2 .3 0 .6-.1.8-.2L7 15h.8l.2-.2v-.9l-3.2-3.1c.1-.2.2-.5.2-.8zM8.5 0C4.9 0 1.8 2.6 1.1 6h1c.7-2.9 3.2-5 6.3-5C12.1 1 15 3.9 15 7.5c0 3.1-2.1 5.6-5 6.3v1c3.4-.7 6-3.7 6-7.3C16 3.4 12.6 0 8.5 0zM13 7H9V2H8v6h5V7z" class="flst0"/></svg><svg id="user-notice-icon" width="18" height="18" x="230" y="18" viewBox="-1 -1 18 18"><path fill="#fff" d="M15 2v12H1V2h14m1-1H0v14h16V1z"/><path fill="#fff" d="M1 2h1v1H1zm1 1h1v1H2zm1 1h1v1H3zm1 1h1v1H4zm1 1h1v1H5zm1 1h1v1H6zm1 1h1v1H7zm1 0h1v1H8zm1-1h1v1H9zm1-1h1v1h-1zm1-1h1v1h-1zm1-1h1v1h-1zm1-1h1v1h-1zm1-1h1v1h-1z"/></svg><svg id="user-notice-icon-cur" width="18" height="18" x="230" y="36" viewBox="-1 -1 18 18"><path fill="#F5B317" d="M15 2v12H1V2h14m1-1H0v14h16V1z"/><path fill="#F5B317" d="M1 2h1v1H1zm1 1h1v1H2zm1 1h1v1H3zm1 1h1v1H4zm1 1h1v1H5zm1 1h1v1H6zm1 1h1v1H7zm1 0h1v1H8zm1-1h1v1H9zm1-1h1v1h-1zm1-1h1v1h-1zm1-1h1v1h-1zm1-1h1v1h-1zm1-1h1v1h-1z"/></svg><svg id="video-y" width="18" height="18" x="230" y="54" viewBox="-42 42 18 18"><style>.fost0{fill:#ffb800}</style><path d="M-30.8 51.3l-2.7-1.7c-.2-.1-.5 0-.5.3v3.3c0 .2.3.4.5.3l2.7-1.7c.2-.1.2-.4 0-.5zm2.8-2.2V49c0-2.8-2.2-5-5-5s-5 2.2-5 5v.1c-1.7.4-3 2-3 3.9 0 2.2 1.8 4 4 4h3v-1h-3c-1.7 0-3-1.3-3-3 0-1.4.9-2.6 2.3-2.9l.8-.2v-1c0-2.2 1.8-4 4-4s4 1.8 4 4v1l.8.2c1.3.3 2.3 1.5 2.3 2.9 0 1.7-1.3 3-3 3h-3v1h3c2.2 0 4-1.8 4-4-.2-1.9-1.5-3.4-3.2-3.9z" class="fost0"/></svg><svg id="video-y-#FFFFFF" width="18" height="18" x="230" y="72" viewBox="-42 42 18 18"><style>.fpst0{fill:#fff}</style><path d="M-30.8 51.3l-2.7-1.7c-.2-.1-.5 0-.5.3v3.3c0 .2.3.4.5.3l2.7-1.7c.2-.1.2-.4 0-.5zm2.8-2.2V49c0-2.8-2.2-5-5-5s-5 2.2-5 5v.1c-1.7.4-3 2-3 3.9 0 2.2 1.8 4 4 4h3v-1h-3c-1.7 0-3-1.3-3-3 0-1.4.9-2.6 2.3-2.9l.8-.2v-1c0-2.2 1.8-4 4-4s4 1.8 4 4v1l.8.2c1.3.3 2.3 1.5 2.3 2.9 0 1.7-1.3 3-3 3h-3v1h3c2.2 0 4-1.8 4-4-.2-1.9-1.5-3.4-3.2-3.9z" class="fpst0"/></svg><svg id="vientiane-y" width="18" height="18" x="230" y="90" viewBox="-42 42 18 18"><style>.fqst0{fill:#ffb800}</style><path d="M-41 44v1h15v9h1V44h-16zm9.8 6.9l-2.8-3.3-5 6.4h1.3l.8-1 3-3.8 2 2.4.7.9.8-.9.2-.2 1.2 1.5.9 1.1h1.2l-3.2-4.2-1.1 1.1zM-40 47h-1v10h16v-1h-15v-9zm10 0v2h2v-2h-2z" class="fqst0"/></svg><svg id="vientiane-y-#FFFFFF" width="18" height="18" x="230" y="108" viewBox="-42 42 18 18"><style>.frst0{fill:#fff}</style><path d="M-41 44v1h15v9h1V44h-16zm9.8 6.9l-2.8-3.3-5 6.4h1.3l.8-1 3-3.8 2 2.4.7.9.8-.9.2-.2 1.2 1.5.9 1.1h1.2l-3.2-4.2-1.1 1.1zM-40 47h-1v10h16v-1h-15v-9zm10 0v2h2v-2h-2z" class="frst0"/></svg><svg id="voice-y" width="18" height="18" x="230" y="126" viewBox="-42 42 18 18"><style>.fsst0{fill-rule:evenodd;clip-rule:evenodd;fill:#ffb800}</style><path d="M-29 50h-2v-3h-1v3h-2v-6h-1v6h-2v-3h-1v3h-2v-2h-1v5h1v-2h2v4h1v-4h2v6h1v-6h2v4h1v-4h2v2h1v-5h-1v2zm3-1v3h1v-3h-1z" class="fsst0"/></svg><svg id="voice-y-#FFFFFF" width="18" height="18" x="230" y="144" viewBox="-42 42 18 18"><style>.ftst0{fill-rule:evenodd;clip-rule:evenodd;fill:#fff}</style><path d="M-29 50h-2v-3h-1v3h-2v-6h-1v6h-2v-3h-1v3h-2v-2h-1v5h1v-2h2v4h1v-4h2v6h1v-6h2v4h1v-4h2v2h1v-5h-1v2zm3-1v3h1v-3h-1z" class="ftst0"/></svg><svg id="vpn-y" width="18" height="18" x="230" y="162" viewBox="-42 42 18 18"><style>.fust0{fill-rule:evenodd;clip-rule:evenodd;fill:#ffb800}</style><path d="M-37 50h1v-3h-1v3zm-2-3v3h1v-3h-1zm1 4h1v-1h-1v1zm3 0h1v-2h2v-2h-3v4zm9 3V44h-15v10h7v2h-3v1h7v-1h-3v-2h7zm-14-1v-8h13v8h-13zm9-2h1v-3h1v3h1v-4h-3v4z" class="fust0"/></svg><svg id="vpn-y-#FFFFFF" width="18" height="18" x="230" y="180" viewBox="-42 42 18 18"><style>.fvst0{fill-rule:evenodd;clip-rule:evenodd;fill:#fff}</style><path d="M-37 50h1v-3h-1v3zm-2-3v3h1v-3h-1zm1 4h1v-1h-1v1zm3 0h1v-2h2v-2h-3v4zm9 3V44h-15v10h7v2h-3v1h7v-1h-3v-2h7zm-14-1v-8h13v8h-13zm9-2h1v-3h1v3h1v-4h-3v4z" class="fvst0"/></svg><svg id="web-y" width="18" height="18" x="230" y="198" viewBox="-42 42 18 18"><style>.fwst0{fill-rule:evenodd;clip-rule:evenodd;fill:#ffb800}</style><path d="M-34.9 48.6l-4.5-3.2 2.5-1.3V43l-4 2.1v3.4l1 .5v-2.8l4.1 2.8.9-.4zm1.9 3.5h-1v4.6l-3-1.6v1.1l3.5 1.9 3.5-1.9V55l-3 1.6v-4.5zm3-9.1v1.1l2.5 1.3-4.5 3.1 1 .5 4.1-2.8V49l1-.5v-3.4L-30 43z" class="fwst0"/></svg><svg id="web-y-#FFFFFF" width="18" height="18" y="226" viewBox="-42 42 18 18"><style>.fxst0{fill-rule:evenodd;clip-rule:evenodd;fill:#fff}</style><path d="M-34.9 48.6l-4.5-3.2 2.5-1.3V43l-4 2.1v3.4l1 .5v-2.8l4.1 2.8.9-.4zm1.9 3.5h-1v4.6l-3-1.6v1.1l3.5 1.9 3.5-1.9V55l-3 1.6v-4.5zm3-9.1v1.1l2.5 1.3-4.5 3.1 1 .5 4.1-2.8V49l1-.5v-3.4L-30 43z" class="fxst0"/></svg><svg id="wechat-y" width="18" height="18" x="18" y="226" viewBox="-8 8 18 18"><style>.fyst0{fill:#ffb800}</style><path id="fyXMLID_177_" d="M5 10c-2.2 0-4 1.8-4 4v6c0 1.6-1.3 3-3 3s-3-1.3-3-3c0-1.1.6-2 1.5-2.6.3-.1.5-.3.4-.6-.1-.3-.3-.5-.6-.4-1.4.7-2.3 2-2.3 3.6 0 2.2 1.8 4 4 4s4-1.8 4-4v-6c0-1.6 1.4-3 3-3s3 1.3 3 3c0 1.1-.6 2-1.5 2.6-.3.1-.5.3-.4.6.1.3.3.5.6.4 1.4-.7 2.3-2 2.3-3.6 0-2.2-1.8-4-4-4z" class="fyst0"/></svg><svg id="wechat-y-#FFFFFF" width="18" height="18" x="36" y="226" viewBox="-8 8 18 18"><style>.fzst0{fill:#fff}</style><path d="M5 10c-2.2 0-4 1.8-4 4v6c0 1.6-1.3 3-3 3s-3-1.3-3-3c0-1.1.6-2 1.5-2.6.3-.1.5-.3.4-.6-.1-.3-.3-.5-.6-.4-1.4.7-2.3 2-2.3 3.6 0 2.2 1.8 4 4 4s4-1.8 4-4v-6c0-1.6 1.4-3 3-3s3 1.3 3 3c0 1.1-.6 2-1.5 2.6-.3.1-.5.3-.4.6.1.3.3.5.6.4 1.4-.7 2.3-2 2.3-3.6 0-2.2-1.8-4-4-4z" class="fzst0"/></svg><svg id="wenzhi-y" width="18" height="18" x="54" y="226" viewBox="-42 42 18 18"><style>.gast0{fill:#ffb800}</style><path d="M-33 59c-2.3 0-3-2-3-3 0 0 0-.5-.6-.8-1.2-.7-3.4-2.6-3.4-5.2 0-2.8 1.9-7 7-7 4.8 0 7 3.8 7 6.5 0 2.4-1.2 3.7-3.5 3.8-1.1.1-2-.2-2.6-.5-.6.3-1.2.4-2 .4s-1.4-.3-1.9-.8c-.7-.8-1.1-2-1.1-3.5h1c0 1.2.3 2.2.8 2.8.6.6 1.5.6 2.2.4-.7-.7-1-1.6-1-2.1 0-2 .7-3 2.1-3 .9 0 1.6.4 2 1.2.5 1.1.3 2.5-.2 3.2-.2.3-.5.5-.8.8.4.1.9.2 1.4.1 1.8-.1 2.5-.9 2.5-2.8 0-1.8-1.5-5.5-6-5.5-4.4 0-6 3.6-6 6 0 2.2 2.1 3.9 2.9 4.4.9.5 1.1 1.3 1.1 1.7 0 .2.1 2 2 2s2-1.9 2-2h1c.1.9-.6 2.9-2.9 2.9zm1.1-11c-.6 0-1.1.2-1.1 2 0 .4.2 1 .7 1.5.1.1.2.2.3.2.5-.3.9-.7 1.1-.9.2-.3.4-1.3.1-2.1-.3-.5-.6-.7-1.1-.7z" class="gast0"/></svg><svg id="wenzhi-y-#FFFFFF" width="18" height="18" x="72" y="226" viewBox="-42 42 18 18"><style>.gbst0{fill:#fff}</style><path d="M-33 59c-2.3 0-3-2-3-3 0 0 0-.5-.6-.8-1.2-.7-3.4-2.6-3.4-5.2 0-2.8 1.9-7 7-7 4.8 0 7 3.8 7 6.5 0 2.4-1.2 3.7-3.5 3.8-1.1.1-2-.2-2.6-.5-.6.3-1.2.4-2 .4s-1.4-.3-1.9-.8c-.7-.8-1.1-2-1.1-3.5h1c0 1.2.3 2.2.8 2.8.6.6 1.5.6 2.2.4-.7-.7-1-1.6-1-2.1 0-2 .7-3 2.1-3 .9 0 1.6.4 2 1.2.5 1.1.3 2.5-.2 3.2-.2.3-.5.5-.8.8.4.1.9.2 1.4.1 1.8-.1 2.5-.9 2.5-2.8 0-1.8-1.5-5.5-6-5.5-4.4 0-6 3.6-6 6 0 2.2 2.1 3.9 2.9 4.4.9.5 1.1 1.3 1.1 1.7 0 .2.1 2 2 2s2-1.9 2-2h1c.1.9-.6 2.9-2.9 2.9zm1.1-11c-.6 0-1.1.2-1.1 2 0 .4.2 1 .7 1.5.1.1.2.2.3.2.5-.3.9-.7 1.1-.9.2-.3.4-1.3.1-2.1-.3-.5-.6-.7-1.1-.7z" class="gbst0"/></svg><svg id="wetest-y" width="18" height="18" x="90" y="226" viewBox="-42 42 18 18"><style>.gcst0{fill:#ffb800}</style><path d="M-31 53.7l-4-8.7-2.3 5.1H-41v1h4.3l1.7-3.6 4 8.7 2.3-5.1h3.7v-1h-4.3l-1.7 3.6zM-41 55h6v-1h-6v1zm10-8.9v1h6v-1h-6z" class="gcst0"/></svg><svg id="wetest-y-#FFFFFF" width="18" height="18" x="108" y="226" viewBox="-42 42 18 18"><style>.gdst0{fill:#fff}</style><path d="M-31 53.7l-4-8.7-2.3 5.1H-41v1h4.3l1.7-3.6 4 8.7 2.3-5.1h3.7v-1h-4.3l-1.7 3.6zM-41 55h6v-1h-6v1zm10-8.9v1h6v-1h-6z" class="gdst0"/></svg><svg id="whale-y" width="18" height="18" x="126" y="226" viewBox="-42 42 18 18"><style>.gest0{fill:#ffb800}</style><path d="M-40 51c0-2.5 1.3-4.7 3.3-5.9l-.5-.8c-2.3 1.4-3.8 3.9-3.8 6.8s1.5 5.4 3.8 6.8l.5-.9c-2-1.3-3.3-3.5-3.3-6zm11.2-6.8l-.5.9c2 1.2 3.4 3.4 3.4 6 0 2.5-1.3 4.7-3.3 5.9l.5.8c2.3-1.4 3.8-3.9 3.8-6.8-.1-2.9-1.6-5.4-3.9-6.8zM-29 53h-7.4c-.1 0-.3-.1-.4-.3-.2-.4-.1-1.1.3-2 .4-.9 1-1.5 1.6-1.6.5-.1.9 0 1 .1.2.1.3.4.4.7.5.8 1 1.8 1.9 2 .5.1 1.4.1 2-.3.4-.3.6-.7.7-1.1.1-.7-.1-1.6-.8-2.2-.3-.2-.7-.4-1.3-.4-.1-.3-.2-.7-.6-1-.5-.4-1.1-.6-1.9-.4l.2 1c.5-.1.9 0 1.1.2.3.3.3.8.3.8 0 .2.1.3.2.4.1.1.3.1.4.1.4-.1.7-.1.9.1.3.3.5.9.4 1.3 0 .2-.1.3-.2.4-.3.2-.9.2-1.1.1-.4-.1-.9-.9-1.3-1.5-.2-.3-.3-.5-.5-.8-.4-.6-1.1-.6-2-.5-.6.1-1.7.6-2.4 2.2-.5 1.2-.6 2.2-.2 2.8.4.7 1 .8 1.1.8h7.6V53z" class="gest0"/></svg><svg id="whale-y-#FFFFFF" width="18" height="18" x="144" y="226" viewBox="-42 42 18 18"><style>.gfst0{fill:#fff}</style><path d="M-40 51c0-2.5 1.3-4.7 3.3-5.9l-.5-.8c-2.3 1.4-3.8 3.9-3.8 6.8s1.5 5.4 3.8 6.8l.5-.9c-2-1.3-3.3-3.5-3.3-6zm11.2-6.8l-.5.9c2 1.2 3.4 3.4 3.4 6 0 2.5-1.3 4.7-3.3 5.9l.5.8c2.3-1.4 3.8-3.9 3.8-6.8-.1-2.9-1.6-5.4-3.9-6.8zM-29 53h-7.4c-.1 0-.3-.1-.4-.3-.2-.4-.1-1.1.3-2 .4-.9 1-1.5 1.6-1.6.5-.1.9 0 1 .1.2.1.3.4.4.7.5.8 1 1.8 1.9 2 .5.1 1.4.1 2-.3.4-.3.6-.7.7-1.1.1-.7-.1-1.6-.8-2.2-.3-.2-.7-.4-1.3-.4-.1-.3-.2-.7-.6-1-.5-.4-1.1-.6-1.9-.4l.2 1c.5-.1.9 0 1.1.2.3.3.3.8.3.8 0 .2.1.3.2.4.1.1.3.1.4.1.4-.1.7-.1.9.1.3.3.5.9.4 1.3 0 .2-.1.3-.2.4-.3.2-.9.2-1.1.1-.4-.1-.9-.9-1.3-1.5-.2-.3-.3-.5-.5-.8-.4-.6-1.1-.6-2-.5-.6.1-1.7.6-2.4 2.2-.5 1.2-.6 2.2-.2 2.8.4.7 1 .8 1.1.8h7.6V53z" class="gfst0"/></svg></svg>