<svg xmlns="http://www.w3.org/2000/svg" xmlns:xlink="http://www.w3.org/1999/xlink" width="16" height="16" x="0" y="0" version="1.1" viewBox="0 0 16 16" xml:space="preserve" style="enable-background:new 0 0 16 16"><style type="text/css">.st3{fill:#006eff}</style><g id="_x31__ICON栅格系统"><g><path d="M1,1v14h14V1H1z M13,13H3V3h10V13z" class="st3"/><path d="M8,12c2.2,0,4-1.8,4-4c0-2.2-1.8-4-4-4C5.8,4,4,5.8,4,8C4,10.2,5.8,12,8,12z M8,6c1.1,0,2,0.9,2,2s-0.9,2-2,2 S6,9.1,6,8S6.9,6,8,6z" class="st3"/></g></g></svg>