<svg xmlns="http://www.w3.org/2000/svg" xmlns:xlink="http://www.w3.org/1999/xlink" width="16" height="16" version="1.1" viewBox="0 0 16 16"><title>策略</title><desc>Created with Sketch.</desc><g id="策略" fill="none" fill-rule="evenodd" stroke="none" stroke-width="1"><g id="Group-4" fill="#006FFF" transform="translate(1.000000, 1.000000)"><path id="Fill-1" d="M2,12 L12,12 L12,4 L2,4 L2,12 Z M3,1 C3.553,1 4,1.448 4,2 C4,2.552 3.553,3 3,3 C2.447,3 2,2.552 2,2 C2,1.448 2.447,1 3,1 Z M6,1 C6.553,1 7,1.448 7,2 C7,2.552 6.553,3 6,3 C5.447,3 5,2.552 5,2 C5,1.448 5.447,1 6,1 Z M0,14 L14,14 L14,0 L0,0 L0,14 Z"/><polygon id="&lt;" stroke="#006FFF" stroke-width=".5" points="5 7 5 7.556 3.495 8.5 5 9.444 5 10 3 8.726 3 8.268"/><path id="Line-2" stroke="#006FFF" stroke-linecap="square" d="M8.5,6 L6,9.3872"/><polygon id="&lt;" stroke="#006FFF" stroke-width=".5" points="11 7 11 7.556 9.495 8.5 11 9.444 11 10 9 8.726 9 8.268" transform="translate(10.000000, 8.500000) scale(-1, 1) translate(-10.000000, -8.500000)"/></g></g></svg>