<svg xmlns="http://www.w3.org/2000/svg" xmlns:xlink="http://www.w3.org/1999/xlink" id="图层_1" width="32" height="32" x="0" style="enable-background:new 0 0 32 32" y="0" version="1.1" viewBox="0 0 32 32" xml:space="preserve"><style type="text/css">.st0{fill:#888}</style><path d="M28.8,18h2c-1,7.3-7.2,13-14.9,13C7.7,31,1,24.3,1,16C1,7.7,7.7,1,16,1c7.6,0,13.9,5.7,14.9,13h-2	C27.9,7.8,22.5,3,16,3C8.8,3,3,8.8,3,16s5.8,13,13,13C22.5,29,27.9,24.2,28.8,18z M23,15h-6V8.6l6,3.4V15z M20.7,13L19,12v1H20.7z M15,15H9v-3l6-3.4V15z M13,12l-1.7,1H13V12z M9,17h6v6.4L9,20V17z M11.3,19l1.7,1v-1H11.3z M17,17h6v3l-6,3.4V17z M19,20l1.7-1H19	V20z" class="st0"/></svg>