<svg xmlns="http://www.w3.org/2000/svg" xmlns:xlink="http://www.w3.org/1999/xlink" width="20" height="20" version="1.1" viewBox="0 0 20 20"><title>分组 23</title><desc>Created with Sketch.</desc><defs><path id="path-1" d="M10,19 C14.9705627,19 19,14.9705627 19,10 C19,5.02943725 14.9705627,1 10,1 C5.02943725,1 1,5.02943725 1,10 C1,14.9705627 5.02943725,19 10,19 Z"/></defs><g id="控制台界面" fill="none" fill-rule="evenodd" stroke="none" stroke-width="1"><g id="画板" transform="translate(-723.000000, -680.000000)"><g id="分组-23" transform="translate(723.000000, 680.000000)"><path id="路径" fill="#E5E5E5" fill-rule="nonzero" d="M10,20 C4.4771525,20 0,15.5228475 0,10 C0,4.4771525 4.4771525,-1.77635684e-15 10,-1.77635684e-15 C15.5228475,-1.77635684e-15 20,4.4771525 20,10 C20,15.5228475 15.5228475,20 10,20 Z"/><mask id="mask-2" fill="#fff"><use xlink:href="#path-1"/></mask><use id="路径" fill="#FFF" fill-rule="nonzero" xlink:href="#path-1"/><polygon id="Fill-2132" fill="#E1001F" points="-.125 18.197 20.125 18.197 20.125 16.398 -.125 16.398" mask="url(#mask-2)"/><polygon id="Fill-2134" fill="#E1001F" points="-.125 14.598 20.125 14.598 20.125 12.799 -.125 12.799" mask="url(#mask-2)"/><polygon id="Fill-2136" fill="#E1001F" points="-.125 10.999 20.125 10.999 20.125 9.2 -.125 9.2" mask="url(#mask-2)"/><polygon id="Fill-2138" fill="#E1001F" points="-.125 7.399 20.125 7.399 20.125 5.6 -.125 5.6" mask="url(#mask-2)"/><polygon id="Fill-2140" fill="#E1001F" points="-.125 3.8 20.125 3.8 20.125 2.001 -.125 2.001" mask="url(#mask-2)"/><polygon id="Fill-2143" fill="#173181" points="-8.049 11 10.262 11 10.262 -1.598 -8.049 -1.598" mask="url(#mask-2)"/><polyline id="Fill-2162" fill="#FFF" points="-.503 -.21 -.347 .266 .153 .266 -.252 .56 -.098 1.037 -.503 .742 -.907 1.037 -.752 .56 -1.157 .266 -.657 .266 -.503 -.21" mask="url(#mask-2)"/><polyline id="Fill-2163" fill="#FFF" points="-.503 1.892 -.347 2.369 .153 2.369 -.252 2.663 -.098 3.139 -.503 2.845 -.907 3.139 -.752 2.663 -1.157 2.369 -.657 2.369 -.503 1.892" mask="url(#mask-2)"/><polyline id="Fill-2164" fill="#FFF" points="-.503 3.995 -.347 4.472 .153 4.472 -.252 4.765 -.098 5.242 -.503 4.947 -.907 5.242 -.752 4.765 -1.157 4.472 -.657 4.472 -.503 3.995" mask="url(#mask-2)"/><polyline id="Fill-2165" fill="#FFF" points="-.503 6.099 -.347 6.574 .153 6.574 -.252 6.869 -.098 7.345 -.503 7.051 -.907 7.345 -.752 6.869 -1.157 6.574 -.657 6.574 -.503 6.099" mask="url(#mask-2)"/><polyline id="Fill-2166" fill="#FFF" points="-.503 8.202 -.347 8.677 .153 8.677 -.252 8.972 -.098 9.448 -.503 9.154 -.907 9.448 -.752 8.972 -1.157 8.677 -.657 8.677 -.503 8.202" mask="url(#mask-2)"/><polyline id="Fill-2167" fill="#FFF" points=".963 .898 1.117 1.374 1.617 1.374 1.212 1.668 1.367 2.144 .963 1.85 .558 2.144 .712 1.668 .307 1.374 .807 1.374 .963 .898" mask="url(#mask-2)"/><polyline id="Fill-2168" fill="#FFF" points=".963 3.001 1.117 3.476 1.617 3.476 1.212 3.771 1.367 4.247 .963 3.953 .558 4.247 .712 3.771 .307 3.476 .807 3.476 .963 3.001" mask="url(#mask-2)"/><polyline id="Fill-2169" fill="#FFF" points=".963 5.103 1.117 5.579 1.617 5.579 1.212 5.874 1.367 6.349 .963 6.056 .558 6.349 .712 5.874 .307 5.579 .807 5.579 .963 5.103" mask="url(#mask-2)"/><polyline id="Fill-2170" fill="#FFF" points=".963 7.206 1.117 7.682 1.617 7.682 1.212 7.977 1.367 8.452 .963 8.158 .558 8.452 .712 7.977 .307 7.682 .807 7.682 .963 7.206" mask="url(#mask-2)"/><polyline id="Fill-2171" fill="#FFF" points="2.446 -.21 2.6 .266 3.101 .266 2.696 .56 2.851 1.037 2.446 .742 2.041 1.037 2.195 .56 1.79 .266 2.291 .266 2.446 -.21" mask="url(#mask-2)"/><polyline id="Fill-2172" fill="#FFF" points="2.446 1.892 2.6 2.369 3.101 2.369 2.696 2.663 2.851 3.139 2.446 2.845 2.041 3.139 2.195 2.663 1.79 2.369 2.291 2.369 2.446 1.892" mask="url(#mask-2)"/><polyline id="Fill-2173" fill="#FFF" points="2.446 3.995 2.6 4.472 3.101 4.472 2.696 4.765 2.851 5.242 2.446 4.947 2.041 5.242 2.195 4.765 1.79 4.472 2.291 4.472 2.446 3.995" mask="url(#mask-2)"/><polyline id="Fill-2174" fill="#FFF" points="2.446 6.099 2.6 6.574 3.101 6.574 2.696 6.869 2.851 7.345 2.446 7.051 2.041 7.345 2.195 6.869 1.79 6.574 2.291 6.574 2.446 6.099" mask="url(#mask-2)"/><polyline id="Fill-2175" fill="#FFF" points="2.446 8.202 2.6 8.677 3.101 8.677 2.696 8.972 2.851 9.448 2.446 9.154 2.041 9.448 2.195 8.972 1.79 8.677 2.291 8.677 2.446 8.202" mask="url(#mask-2)"/><polyline id="Fill-2176" fill="#FFF" points="3.91 .898 4.065 1.374 4.565 1.374 4.16 1.668 4.315 2.144 3.91 1.85 3.505 2.144 3.66 1.668 3.255 1.374 3.756 1.374 3.91 .898" mask="url(#mask-2)"/><polyline id="Fill-2177" fill="#FFF" points="3.91 3.001 4.065 3.476 4.565 3.476 4.16 3.771 4.315 4.247 3.91 3.953 3.505 4.247 3.66 3.771 3.255 3.476 3.756 3.476 3.91 3.001" mask="url(#mask-2)"/><polyline id="Fill-2178" fill="#FFF" points="3.91 5.103 4.065 5.579 4.565 5.579 4.16 5.874 4.315 6.349 3.91 6.056 3.505 6.349 3.66 5.874 3.255 5.579 3.756 5.579 3.91 5.103" mask="url(#mask-2)"/><polyline id="Fill-2179" fill="#FFF" points="3.91 7.206 4.065 7.682 4.565 7.682 4.16 7.977 4.315 8.452 3.91 8.158 3.505 8.452 3.66 7.977 3.255 7.682 3.756 7.682 3.91 7.206" mask="url(#mask-2)"/><polyline id="Fill-2180" fill="#FFF" points="5.393 -.21 5.548 .266 6.049 .266 5.644 .56 5.798 1.037 5.393 .742 4.988 1.037 5.143 .56 4.738 .266 5.239 .266 5.393 -.21" mask="url(#mask-2)"/><polyline id="Fill-2181" fill="#FFF" points="5.393 1.892 5.548 2.369 6.049 2.369 5.644 2.663 5.798 3.139 5.393 2.845 4.988 3.139 5.143 2.663 4.738 2.369 5.239 2.369 5.393 1.892" mask="url(#mask-2)"/><polyline id="Fill-2182" fill="#FFF" points="5.393 3.995 5.548 4.472 6.049 4.472 5.644 4.765 5.798 5.242 5.393 4.947 4.988 5.242 5.143 4.765 4.738 4.472 5.239 4.472 5.393 3.995" mask="url(#mask-2)"/><polyline id="Fill-2183" fill="#FFF" points="5.393 6.099 5.548 6.574 6.049 6.574 5.644 6.869 5.798 7.345 5.393 7.051 4.988 7.345 5.143 6.869 4.738 6.574 5.239 6.574 5.393 6.099" mask="url(#mask-2)"/><polyline id="Fill-2184" fill="#FFF" points="5.393 8.202 5.548 8.677 6.049 8.677 5.644 8.972 5.798 9.448 5.393 9.154 4.988 9.448 5.143 8.972 4.738 8.677 5.239 8.677 5.393 8.202" mask="url(#mask-2)"/><polyline id="Fill-2185" fill="#FFF" points="6.858 .898 7.013 1.374 7.513 1.374 7.108 1.668 7.263 2.144 6.858 1.85 6.453 2.144 6.608 1.668 6.203 1.374 6.703 1.374 6.858 .898" mask="url(#mask-2)"/><polyline id="Fill-2186" fill="#FFF" points="6.858 3.001 7.013 3.476 7.513 3.476 7.108 3.771 7.263 4.247 6.858 3.953 6.453 4.247 6.608 3.771 6.203 3.476 6.703 3.476 6.858 3.001" mask="url(#mask-2)"/><polyline id="Fill-2187" fill="#FFF" points="6.858 5.103 7.013 5.579 7.513 5.579 7.108 5.874 7.263 6.349 6.858 6.056 6.453 6.349 6.608 5.874 6.203 5.579 6.703 5.579 6.858 5.103" mask="url(#mask-2)"/><polyline id="Fill-2188" fill="#FFF" points="6.858 7.206 7.013 7.682 7.513 7.682 7.108 7.977 7.263 8.452 6.858 8.158 6.453 8.452 6.608 7.977 6.203 7.682 6.703 7.682 6.858 7.206" mask="url(#mask-2)"/><polyline id="Fill-2189" fill="#FFF" points="8.341 -.21 8.496 .266 8.997 .266 8.592 .56 8.746 1.037 8.341 .742 7.936 1.037 8.091 .56 7.686 .266 8.187 .266 8.341 -.21" mask="url(#mask-2)"/><polyline id="Fill-2190" fill="#FFF" points="8.341 1.892 8.496 2.369 8.997 2.369 8.592 2.663 8.746 3.139 8.341 2.845 7.936 3.139 8.091 2.663 7.686 2.369 8.187 2.369 8.341 1.892" mask="url(#mask-2)"/><polyline id="Fill-2191" fill="#FFF" points="8.341 3.995 8.496 4.472 8.997 4.472 8.592 4.765 8.746 5.242 8.341 4.947 7.936 5.242 8.091 4.765 7.686 4.472 8.187 4.472 8.341 3.995" mask="url(#mask-2)"/><polyline id="Fill-2192" fill="#FFF" points="8.341 6.099 8.496 6.574 8.997 6.574 8.592 6.869 8.746 7.345 8.341 7.051 7.936 7.345 8.091 6.869 7.686 6.574 8.187 6.574 8.341 6.099" mask="url(#mask-2)"/><polyline id="Fill-2193" fill="#FFF" points="8.341 8.202 8.496 8.677 8.997 8.677 8.592 8.972 8.746 9.448 8.341 9.154 7.936 9.448 8.091 8.972 7.686 8.677 8.187 8.677 8.341 8.202" mask="url(#mask-2)"/></g></g></g></svg>