<svg xmlns="http://www.w3.org/2000/svg" xmlns:xlink="http://www.w3.org/1999/xlink" width="20" height="20" version="1.1" viewBox="0 0 20 20"><title>德国</title><desc>Created with Sketch.</desc><defs><path id="path-1" d="M9,18 C13.9705627,18 18,13.9705627 18,9 C18,4.02943725 13.9705627,-1.77635684e-15 9,-1.77635684e-15 C4.02943725,-1.77635684e-15 0,4.02943725 0,9 C0,13.9705627 4.02943725,18 9,18 Z"/></defs><g id="控制台界面" fill="none" fill-rule="evenodd" stroke="none" stroke-width="1"><g id="画板" transform="translate(-593.000000, -680.000000)"><g id="德国" transform="translate(593.000000, 680.000000)"><path id="路径" fill="#E5E5E5" fill-rule="nonzero" d="M10,20 C4.4771525,20 0,15.5228475 0,10 C0,4.4771525 4.4771525,-1.77635684e-15 10,-1.77635684e-15 C15.5228475,-1.77635684e-15 20,4.4771525 20,10 C20,15.5228475 15.5228475,20 10,20 Z"/><g id="分组-22" transform="translate(1.000000, 1.000000)"><mask id="mask-2" fill="#fff"><use xlink:href="#path-1"/></mask><use id="路径" fill="#F2F2F2" fill-rule="nonzero" xlink:href="#path-1"/><polygon id="Fill-446" fill="#000" points="-1.125 5.625 18.875 5.625 18.875 -1.125 -1.125 -1.125" mask="url(#mask-2)"/><polygon id="Fill-447" fill="#E1001F" points="-1.125 12.375 18.875 12.375 18.875 5.625 -1.125 5.625" mask="url(#mask-2)"/><polygon id="Fill-448" fill="#F6D928" points="-1.125 19.125 18.875 19.125 18.875 12.375 -1.125 12.375" mask="url(#mask-2)"/></g></g></g></g></svg>