<svg xmlns="http://www.w3.org/2000/svg" xmlns:xlink="http://www.w3.org/1999/xlink" width="20" height="20" version="1.1" viewBox="0 0 20 20"><title>新加坡</title><desc>Created with Sketch.</desc><defs><path id="path-1" d="M10,19 C14.9705627,19 19,14.9705627 19,10 C19,5.02943725 14.9705627,1 10,1 C5.02943725,1 1,5.02943725 1,10 C1,14.9705627 5.02943725,19 10,19 Z"/></defs><g id="控制台界面" fill="none" fill-rule="evenodd" stroke="none" stroke-width="1"><g id="画板" transform="translate(-541.000000, -680.000000)"><g id="新加坡" transform="translate(541.000000, 680.000000)"><path id="椭圆形-copy-5" fill="#E5E5E5" fill-rule="nonzero" d="M10,20 C4.4771525,20 0,15.5228475 0,10 C0,4.4771525 4.4771525,0 10,0 C15.5228475,0 20,4.4771525 20,10 C20,15.5228475 15.5228475,20 10,20 Z"/><mask id="mask-2" fill="#fff"><use xlink:href="#path-1"/></mask><use id="路径" fill="#FFF" fill-rule="nonzero" xlink:href="#path-1"/><rect id="矩形-copy-14" width="20.25" height="11" x="0" y="0" fill="#E1001F" fill-rule="nonzero" mask="url(#mask-2)"/><g id="分组-3" fill="#FFF" mask="url(#mask-2)"><g transform="translate(4.244854, 2.125000)"><path id="路径" d="M5.76344559,7.63476028 C5.37186055,7.77172126 4.9509189,7.84617857 4.51257047,7.84617857 C2.42048565,7.84617857 0.724896362,6.15017411 0.724896362,4.05767411 C0.724896362,1.96641964 2.42048565,0.27 4.51257047,0.27 C4.95088415,0.27 5.3717938,0.344463727 5.76335246,0.481421304 C3.85486857,0.558999296 2.33122226,2.13055823 2.33122226,4.05767411 C2.33122226,5.98522611 3.85491814,7.5572096 5.76344559,7.63476028 Z"/><polyline id="Fill-4350" points="6.148 4.149 5.634 3.755 5.119 4.149 5.317 3.513 4.801 3.121 5.438 3.122 5.633 2.485 5.83 3.122 6.466 3.121 5.95 3.513 6.148 4.149"/><polyline id="Fill-4351" points="10.186 4.149 9.672 3.755 9.157 4.149 9.354 3.513 8.839 3.121 9.475 3.122 9.671 2.485 9.867 3.122 10.504 3.121 9.988 3.513 10.186 4.149"/><polyline id="Fill-4352" points="8.169 2.651 7.655 2.256 7.14 2.651 7.338 2.015 6.822 1.623 7.459 1.623 7.654 .986 7.85 1.623 8.487 1.622 7.971 2.015 8.169 2.651"/><polyline id="Fill-4353" points="6.904 6.548 6.389 6.152 5.875 6.548 6.073 5.911 5.556 5.518 6.194 5.52 6.389 4.883 6.585 5.52 7.222 5.518 6.705 5.911 6.904 6.548"/><polyline id="Fill-4354" points="9.43 6.548 8.916 6.152 8.402 6.548 8.6 5.911 8.083 5.518 8.72 5.52 8.916 4.883 9.111 5.52 9.748 5.518 9.232 5.911 9.43 6.548"/></g></g></g></g></g></svg>