<svg xmlns="http://www.w3.org/2000/svg" xmlns:xlink="http://www.w3.org/1999/xlink" width="20" height="20" version="1.1" viewBox="0 0 20 20"><title>泰国</title><desc>Created with Sketch.</desc><defs><path id="path-1" d="M10,19 C14.9705627,19 19,14.9705627 19,10 C19,5.02943725 14.9705627,1 10,1 C5.02943725,1 1,5.02943725 1,10 C1,14.9705627 5.02943725,19 10,19 Z"/></defs><g id="控制台界面" fill="none" fill-rule="evenodd" stroke="none" stroke-width="1"><g id="画板" transform="translate(-671.000000, -680.000000)"><g id="泰国" transform="translate(671.000000, 680.000000)"><path id="路径" fill="#E5E5E5" fill-rule="nonzero" d="M10,20 C4.4771525,20 0,15.5228475 0,10 C0,4.4771525 4.4771525,-1.77635684e-15 10,-1.77635684e-15 C15.5228475,-1.77635684e-15 20,4.4771525 20,10 C20,15.5228475 15.5228475,20 10,20 Z"/><mask id="mask-2" fill="#fff"><use xlink:href="#path-1"/></mask><use id="路径" fill="#FFF" fill-rule="nonzero" xlink:href="#path-1"/><polygon id="Fill-446" fill="#E1001F" points="-.125 3.813 20.125 3.813 20.125 -.125 -.125 -.125" mask="url(#mask-2)"/><polygon id="Fill-447" fill="#28348F" points="-.125 13.375 20.125 13.375 20.125 6.625 -.125 6.625" mask="url(#mask-2)"/><polygon id="Fill-448" fill="#E1001F" points="-.125 20.125 20.125 20.125 20.125 16.188 -.125 16.188" mask="url(#mask-2)"/></g></g></g></svg>